<svg width="52" height="52" viewBox="0 0 52 52" fill="none" xmlns="http://www.w3.org/2000/svg">
<g clip-path="url(#clip0)">
<path d="M13.9002 51.9984C12.8715 51.9984 11.8626 51.5977 11.1017 50.8411L1.7952 41.5894C0.637543 40.4385 0 38.9056 0 37.273C0 35.6405 0.637543 34.1075 1.7952 32.9566L11.1017 23.7049C12.2442 22.5691 13.9446 22.2354 15.4331 22.8547C16.9161 23.4716 17.8746 24.9058 17.8746 26.5082V35.2418H49.9688C51.0907 35.2418 52 36.1511 52 37.273C52 38.395 51.0907 39.3043 49.9688 39.3043H17.8742C15.6343 39.3043 13.8117 37.4817 13.8117 35.2418V26.7395L4.65958 35.8381C4.27475 36.2205 4.0629 36.7303 4.0629 37.273C4.0629 37.8157 4.27475 38.3255 4.65958 38.7084L13.8117 47.8066V45.8047C13.8117 44.6827 14.721 43.7734 15.843 43.7734C16.9649 43.7734 17.8742 44.6827 17.8742 45.8047V48.0378C17.8742 49.6402 16.9161 51.074 15.4331 51.6909C14.936 51.8976 14.4159 51.9984 13.9002 51.9984Z" fill="#3E503C"/>
<path d="M38.0998 29.4507C37.5841 29.4507 37.064 29.3499 36.5669 29.1432C35.0839 28.5263 34.1258 27.0926 34.1258 25.4898V23.257C34.1258 22.135 35.0351 21.2253 36.157 21.2253C37.279 21.2253 38.1883 22.135 38.1883 23.257V25.2589L47.3404 16.1603C47.7253 15.7779 47.9371 15.2681 47.9371 14.7253C47.9371 14.1826 47.7253 13.6728 47.3404 13.29L38.1883 4.19181V12.6941C38.1883 14.934 36.3657 16.7566 34.1258 16.7566H2.03125C0.909302 16.7566 0 15.8473 0 14.7253C0 13.6034 0.909302 12.6941 2.03125 12.6941H34.1258V3.96052C34.1258 2.35813 35.0839 0.923959 36.5669 0.307047C38.0558 -0.312246 39.7558 0.0214024 40.8983 1.15724L50.2048 10.4089C51.3625 11.5598 52 13.0928 52 14.7253C52 16.3579 51.3625 17.8908 50.2048 19.0417L40.8983 28.2935C40.1374 29.05 39.1285 29.4507 38.0998 29.4507Z" fill="#3E503C"/>
</g>
<defs>
<clipPath id="clip0">
<rect width="52" height="52" fill="white"/>
</clipPath>
</defs>
</svg>
