<svg width="48" height="24" viewBox="0 0 48 24" fill="none" xmlns="http://www.w3.org/2000/svg">
<path d="M34.6876 24C34.2181 24 33.7445 23.9179 33.292 23.7494C31.9418 23.2467 31.0695 22.0783 31.0695 20.7722V18.9526C31.0695 18.0383 31.8974 17.297 32.9188 17.297C33.9403 17.297 34.7682 18.0383 34.7682 18.9526V20.584L43.1006 13.1694C43.451 12.8578 43.6439 12.4423 43.6439 12.0001C43.6439 11.5578 43.451 11.1424 43.1006 10.8304L34.7682 3.41612V10.3448C34.7682 12.1701 33.1088 13.6554 31.0695 13.6554H1.84933C0.827865 13.6554 0 12.9144 0 12.0001C0 11.0858 0.827865 10.3448 1.84933 10.3448H31.0695V3.22764C31.0695 1.92183 31.9418 0.753098 33.292 0.250367C34.6475 -0.254305 36.1953 0.0175903 37.2355 0.943199L45.7085 8.48256C46.7625 9.42045 47.3429 10.6697 47.3429 12.0001C47.3429 13.3304 46.7625 14.5797 45.7085 15.5176L37.2355 23.0569C36.5427 23.6735 35.6242 24 34.6876 24Z" fill="#F3ECDB"/>
</svg>
