<svg width="1440" height="2528" viewBox="0 0 1440 2528" fill="none" xmlns="http://www.w3.org/2000/svg">
<line x1="920.5" y1="-2.18557e-08" x2="920.5" y2="2413" stroke="#7F886A" stroke-opacity="0.25"/>
<line x1="630.5" y1="-2.18557e-08" x2="630.5" y2="2413" stroke="#7F886A" stroke-opacity="0.25"/>
<line x1="340.5" y1="-2.18557e-08" x2="340.5" y2="2413" stroke="#7F886A" stroke-opacity="0.25"/>
<path fill-rule="evenodd" clip-rule="evenodd" d="M1242.82 1579.85C1241.57 1582.89 1240.7 1586.81 1240.48 1590.02C1240.16 1594.44 1233.61 1598.19 1230.5 1600.98C1234.35 1603.56 1238.18 1595.58 1242.33 1594.41C1246.6 1593.2 1250.8 1595.53 1254.87 1593.26C1251.77 1590.15 1247.58 1594.24 1243.56 1592.29C1246.42 1590.01 1254.25 1586.6 1254.51 1582.99C1254.75 1579.62 1243.89 1589.98 1242.56 1591.18C1241.88 1587.19 1246.63 1581.69 1242.82 1579.85" fill="#7F886A"/>
<path fill-rule="evenodd" clip-rule="evenodd" d="M1282.8 1534.95C1280.13 1538.46 1279.17 1544.14 1275.99 1547.11C1274.48 1548.51 1264.48 1550.31 1266.89 1553.24C1268.3 1554.95 1275.64 1548.54 1278.07 1548.27C1282.44 1547.77 1286.9 1551.82 1291.45 1550.39C1288.4 1548.03 1284.03 1548.33 1280.3 1547.27C1282.98 1545.7 1293.19 1542.86 1293.22 1540.74C1293.28 1536.48 1281.84 1544.27 1279.88 1545.64C1280.68 1541.73 1287.79 1534.49 1282.8 1534.95Z" fill="#7F886A"/>
<path fill-rule="evenodd" clip-rule="evenodd" d="M1316.35 1496.81C1313.47 1500.1 1312.88 1505.96 1309.53 1508.97C1306.52 1511.67 1299.69 1511.06 1299.86 1515.62C1303.34 1515.27 1307.28 1511.03 1311.04 1510.64C1315.51 1510.18 1320.42 1513.2 1324.42 1512.76C1323.1 1509.73 1317.17 1511.12 1313.85 1509.13C1315.69 1508.32 1326.61 1504.8 1326.73 1503.14C1327.05 1498.56 1315.37 1506.15 1313.43 1507.49C1313.58 1503.95 1320.24 1498.7 1316.35 1496.81Z" fill="#7F886A"/>
<path fill-rule="evenodd" clip-rule="evenodd" d="M1357.69 1455.74C1355.91 1461.11 1357.03 1466.27 1353.89 1471.25C1346.48 1483.01 1351.35 1475.54 1357.79 1469.77C1358.77 1468.89 1372.21 1469.36 1371.05 1465.96C1370.57 1464.55 1361.84 1467.58 1360.1 1467.7C1360.91 1466.43 1373.3 1454.24 1367.99 1455.59C1364.63 1456.44 1361.06 1463.6 1358.59 1466.03C1357.65 1462.54 1362.32 1454.37 1357.69 1455.74Z" fill="#7F886A"/>
<path fill-rule="evenodd" clip-rule="evenodd" d="M1365.1 1404.75C1365.25 1409.36 1367.41 1414.42 1366.27 1418.83C1365.33 1422.45 1360.44 1425.18 1362.85 1428.95C1368.24 1424.22 1367.28 1420.09 1373.48 1416.4C1384.39 1409.91 1379.29 1412.63 1370.82 1415.76C1371.57 1412.29 1378.34 1405.95 1377.13 1403.05C1375.24 1398.5 1369.57 1413.08 1368.73 1414.6C1367.04 1411.5 1369.33 1403.53 1365.1 1404.75Z" fill="#7F886A"/>
<path fill-rule="evenodd" clip-rule="evenodd" d="M1352.81 1341.16C1353.26 1345.48 1354.91 1349.8 1354.59 1354.18C1354.3 1358.31 1350.57 1361.44 1349.48 1365.32C1355.4 1365 1354 1355.58 1360.86 1353.61C1362.67 1353.08 1370.56 1350.12 1368.55 1348.23C1367.31 1347.06 1360.34 1352.07 1357.95 1352.69C1359.38 1350.4 1366.24 1342.65 1365.34 1340.02C1363.76 1335.41 1357.59 1349.75 1356.94 1351.57C1354.25 1347.92 1357.34 1340.39 1352.81 1341.16Z" fill="#7F886A"/>
<path fill-rule="evenodd" clip-rule="evenodd" d="M1358.15 1280.93C1357.61 1284.41 1358.4 1288.45 1357.39 1291.69C1356.33 1295.1 1348.7 1301.58 1350.08 1303.29C1352.33 1306.06 1356.96 1295.95 1359.9 1294.48C1363.52 1292.66 1368.06 1294.43 1372.01 1291.7C1368.83 1289.86 1364.7 1292.85 1360.55 1292.89C1361.98 1291.5 1373.88 1279.16 1368.45 1280.77C1365.85 1281.55 1361.31 1289.24 1360.13 1291.25C1359.77 1291.24 1359.41 1291.23 1359.05 1291.21C1359.03 1287.26 1362.35 1280.53 1358.15 1280.93Z" fill="#7F886A"/>
<path fill-rule="evenodd" clip-rule="evenodd" d="M1393.39 1234.22C1392.02 1237.5 1393.21 1241.86 1392.05 1245.5C1391.21 1248.16 1383.68 1254.6 1384.23 1256.54C1385.01 1259.27 1392.97 1248.23 1395.1 1248.31C1398.59 1248.44 1403.76 1247.5 1406.67 1245.51C1403.26 1243.39 1399.32 1246.78 1395.79 1246.18C1396.13 1245.6 1408.51 1232.56 1403.11 1234.58C1399.67 1235.87 1397.06 1242.61 1393.71 1245.02C1393.27 1242.21 1394.84 1236.9 1395.55 1234.3C1394.57 1233.95 1394.06 1234.15 1393.39 1234.22Z" fill="#7F886A"/>
<path fill-rule="evenodd" clip-rule="evenodd" d="M1221.9 1569.36C1222.63 1573.38 1226.71 1577.93 1226.43 1581.94C1226.37 1582.75 1220.65 1595.83 1225.71 1592.16C1229.15 1589.66 1225.78 1581.97 1231.48 1579.43C1232.68 1578.89 1242.07 1571.51 1237.95 1572.12C1235.46 1572.49 1232.04 1577.68 1229.36 1578.81C1230.22 1575.84 1235.27 1567.32 1233.58 1564.94C1231.2 1561.57 1228.13 1576.44 1227.27 1577.65C1225.42 1574.93 1225.07 1565.57 1221.9 1569.36Z" fill="#7F886A"/>
<path fill-rule="evenodd" clip-rule="evenodd" d="M1266.09 1518.67C1265.75 1523.01 1267.67 1526.91 1267.38 1531.13C1267.2 1533.66 1259.92 1539.58 1261.76 1541.71C1264.45 1544.82 1267.54 1533.37 1268.92 1532.26C1272.28 1529.55 1278.07 1530.66 1281.76 1526.81C1278.3 1525.64 1274.39 1528.93 1270.73 1529.63C1272.37 1524.92 1278.2 1521.87 1278.12 1516.96C1274.94 1516.3 1270.84 1525.32 1269.15 1529.03C1268.2 1525.55 1269.33 1517.93 1266.09 1518.67Z" fill="#7F886A"/>
<path fill-rule="evenodd" clip-rule="evenodd" d="M1299.07 1481.06C1298.58 1484.88 1300.05 1490.18 1299.77 1494.03C1299.66 1495.71 1292.07 1504.12 1295.23 1504.65C1298.18 1505.15 1299.94 1496.25 1301.9 1494.65C1305.42 1491.78 1310.89 1492.85 1314.73 1489.2C1311.31 1486.98 1307.61 1491.59 1303.71 1492.02C1305.03 1489.89 1312.72 1481.14 1311.1 1479.35C1309.02 1477.05 1303.19 1488.86 1301.62 1490.86C1301.15 1488.32 1303.15 1477.41 1299.07 1481.06Z" fill="#7F886A"/>
<path fill-rule="evenodd" clip-rule="evenodd" d="M1334.98 1447.87C1336.61 1451.66 1340.57 1455.43 1341.2 1459.43C1341.79 1463.18 1337.82 1467.4 1340.94 1470.76C1342.79 1468.24 1343.02 1464.21 1343.24 1461.13C1343.58 1456.42 1349.97 1454.03 1353.26 1449.63C1350.11 1447.1 1347.56 1453.28 1344.16 1455.77C1343.89 1453.77 1347.82 1441.88 1345.69 1441.8C1341.58 1441.64 1342.74 1452.3 1342 1455.69C1339.53 1453.2 1337.99 1443.89 1334.98 1447.87Z" fill="#7F886A"/>
<path fill-rule="evenodd" clip-rule="evenodd" d="M1340.91 1402.22C1343.54 1405.15 1348.69 1409.24 1349.94 1412.27C1350.77 1414.28 1349.44 1423.05 1351.88 1423.14C1354.94 1423.25 1352 1413.84 1352.14 1411.82C1352.47 1407.09 1359.4 1404.01 1357.91 1399.08C1355.08 1402.01 1354.7 1405.77 1351.83 1408.57C1350.82 1405.46 1353.21 1395.02 1350.15 1393.93C1346.69 1392.71 1349.93 1406.63 1349.67 1408.49C1346.58 1406.75 1344.43 1399.43 1340.91 1402.22Z" fill="#7F886A"/>
<path fill-rule="evenodd" clip-rule="evenodd" d="M1329.12 1339.19C1330.06 1342.78 1337.87 1345.65 1337.62 1349.22C1337.36 1352.9 1337.7 1360.21 1341.21 1359.61C1339.67 1348.46 1342.05 1347.16 1347.13 1337.17C1343.51 1335.74 1341.93 1342.5 1340.04 1345.54C1339.3 1342.46 1340.89 1332.33 1338.37 1330.91C1335 1329 1337.43 1343.9 1337.88 1345.46C1334.41 1343.98 1331.57 1335.71 1329.12 1339.19Z" fill="#7F886A"/>
<path fill-rule="evenodd" clip-rule="evenodd" d="M1336 1272.55C1336.75 1276.57 1342.46 1280.8 1342.19 1284.65C1341.9 1288.71 1338.59 1292.65 1341.39 1295.95C1345.21 1291.44 1342.16 1286.19 1346.98 1281.86C1347.73 1281.19 1356.49 1271.81 1351.62 1273.67C1348.44 1274.89 1348.49 1279.74 1344.61 1280.96C1344.75 1278.72 1349.25 1266.67 1346.18 1266.45C1342.7 1266.2 1343.32 1278.26 1342.45 1280.88C1340.12 1277.99 1338.75 1270.29 1336 1272.55Z" fill="#7F886A"/>
<path fill-rule="evenodd" clip-rule="evenodd" d="M1370.66 1226.36C1372.06 1229.51 1377.09 1235.02 1376.84 1238.46C1376.57 1242.41 1374.06 1246.32 1376.05 1249.76C1378.69 1247.24 1378.1 1243.68 1378.35 1240.13C1378.73 1234.73 1386.62 1232.93 1388.44 1227.56C1384.53 1227.81 1382.5 1232.21 1379.27 1234.77C1380.51 1230.3 1381.59 1224.68 1382.42 1220.86C1377.2 1219.02 1378.26 1230.03 1377.69 1234.18C1374.55 1232.47 1373.68 1222.11 1370.66 1226.36Z" fill="#7F886A"/>
<path fill-rule="evenodd" clip-rule="evenodd" d="M1414.14 1193.45C1409.69 1197.15 1404.06 1198.06 1400.5 1202.65C1397.92 1205.99 1398.04 1214.81 1393.34 1212.1C1396.6 1206.6 1397.86 1201.68 1398.18 1197.17C1398.48 1192.94 1394.66 1189.43 1395.82 1184.67C1399.33 1186.78 1398.13 1192.85 1400.38 1196.71C1401.9 1193.56 1404.65 1180.17 1407.42 1181.33C1411.67 1183.1 1402.95 1194.54 1402.46 1197.87C1406.31 1195.77 1412.57 1188.3 1414.14 1193.45Z" fill="#7F886A"/>
<path fill-rule="evenodd" clip-rule="evenodd" d="M1433.95 1212C1430.54 1211.48 1425.05 1210.5 1421.57 1211C1418.66 1211.41 1407.68 1219.05 1407 1218C1404.81 1214.65 1416.55 1210.6 1418.56 1207.64C1421.07 1203.95 1420.3 1198.26 1423.29 1194.33C1425.75 1197.43 1421.06 1202.91 1420.79 1206.65C1421.83 1206.12 1436.97 1193.25 1435.36 1199.64C1434.41 1203.42 1424.61 1206.58 1421.72 1208.84C1425.7 1210.12 1436.41 1206.53 1433.95 1212Z" fill="#7F886A"/>
<path fill-rule="evenodd" clip-rule="evenodd" d="M147.802 726.11C148.368 729.688 148.283 734.128 147.687 737.666C146.868 742.536 153.038 748.035 155.702 751.741C150.816 753.716 148.74 744.206 144.51 742.03C140.169 739.795 134.977 741.409 131.13 738.06C135.329 735.354 138.821 740.711 143.72 739.468C141.205 736.366 133.549 730.955 134.216 726.982C134.841 723.266 143.969 736.886 145.11 738.472C146.896 734.287 143.155 727.283 147.802 726.11" fill="#7F886A"/>
<path fill-rule="evenodd" clip-rule="evenodd" d="M115.961 668.641C117.952 673.031 117.516 679.409 120.207 683.329C121.482 685.183 131.932 689.306 128.525 691.97C126.538 693.525 120.207 684.964 117.63 684.135C112.994 682.646 107.056 686.082 102.46 683.534C106.418 681.63 111.106 682.908 115.451 682.567C112.944 680.282 102.546 674.972 103.071 672.666C104.122 668.028 114.567 678.977 116.344 680.884C116.497 676.468 110.635 667.049 115.961 668.641Z" fill="#7F886A"/>
<path fill-rule="evenodd" clip-rule="evenodd" d="M89.3686 619.912C91.641 624.113 90.7438 630.607 93.6145 634.6C96.1977 638.193 103.807 639.018 102.426 643.931C98.7152 642.789 95.5326 637.331 91.5303 636.094C86.7705 634.624 80.6177 636.837 76.3629 635.492C78.6066 632.478 84.7135 635.284 88.8548 633.837C87.0653 632.557 76.067 626.357 76.3746 624.53C77.2234 619.482 87.9849 630.272 89.7501 632.154C90.5134 628.266 84.6272 621.114 89.3686 619.912Z" fill="#7F886A"/>
<path fill-rule="evenodd" clip-rule="evenodd" d="M55.0306 566.306C55.5661 572.53 52.9933 577.889 55.1081 583.981C60.1056 598.378 56.7584 589.205 51.2447 581.536C50.398 580.359 35.6063 577.956 37.7704 574.506C38.6603 573.084 47.392 578.267 49.2648 578.783C48.7164 577.227 38.3887 561.281 43.8302 563.905C47.2729 565.564 49.297 574.114 51.3489 577.289C53.2958 573.702 50.3412 563.812 55.0306 566.306Z" fill="#7F886A"/>
<path fill-rule="evenodd" clip-rule="evenodd" d="M60.3592 509.288C58.984 514.259 55.2941 519.292 55.3836 524.328C55.4561 528.468 60.0783 532.498 56.4607 536.073C51.8141 529.757 53.9507 525.481 48.153 520.125C37.944 510.699 42.7932 514.767 51.2249 520.008C51.313 516.072 45.5937 507.712 47.6739 504.822C50.9343 500.286 53.2922 517.369 53.8028 519.203C56.4686 516.193 56.062 507.043 60.3592 509.288Z" fill="#7F886A"/>
<path fill-rule="evenodd" clip-rule="evenodd" d="M90.5007 442.844C88.8787 447.436 85.9445 451.771 85.1324 456.601C84.3655 461.15 87.6154 465.36 87.7919 469.819C81.4155 468.19 85.4172 458.255 78.4419 454.617C76.6013 453.654 68.7723 448.725 71.4604 447.104C73.1193 446.103 79.4151 453.064 81.8627 454.251C80.9048 451.452 75.4435 441.547 77.1197 438.875C80.0512 434.213 83.0212 451.133 83.2521 453.255C87.1529 449.871 85.7531 441.019 90.5007 442.844Z" fill="#7F886A"/>
<path fill-rule="evenodd" clip-rule="evenodd" d="M100.508 376.221C100.187 380.123 98.264 384.34 98.5112 388.082C98.7713 392.024 105.405 400.723 103.453 402.274C100.269 404.799 97.858 392.811 95.0389 390.571C91.561 387.809 86.1425 388.737 82.5547 384.918C86.5098 383.614 90.2333 387.758 94.7446 388.698C93.5559 386.879 83.8025 370.881 89.3104 373.818C91.9427 375.222 94.8776 384.569 95.6391 387.013C96.0351 387.078 96.4315 387.14 96.8288 387.204C97.8905 382.91 96.0357 374.876 100.508 376.221Z" fill="#7F886A"/>
<path fill-rule="evenodd" clip-rule="evenodd" d="M74.3232 317.814C74.9611 321.679 72.5125 326.159 72.8211 330.364C73.0461 333.437 79.5693 342.07 78.4559 344.058C76.8887 346.858 71.1054 333.136 68.7525 332.76C64.9097 332.144 59.5107 329.995 56.8619 327.202C61.1356 325.635 64.5527 330.178 68.5582 330.292C68.3458 329.594 58.255 312.734 63.6177 316.102C67.0343 318.246 68.1102 326.14 71.137 329.489C72.3505 326.529 72.0336 320.413 71.9434 317.435C73.1113 317.264 73.6065 317.594 74.3232 317.814Z" fill="#7F886A"/>
<path fill-rule="evenodd" clip-rule="evenodd" d="M173.398 719.24C171.543 723.451 165.898 727.515 165.153 731.93C165.003 732.825 167.81 748.283 163.257 743.199C160.153 739.735 165.857 732.103 160.301 728.107C159.128 727.264 150.817 717.198 155.156 718.757C157.781 719.699 160.14 726.085 162.779 727.895C162.62 724.482 159.346 714.12 161.808 711.902C165.29 708.764 164.74 725.591 165.359 727.088C168.092 724.532 170.94 714.441 173.398 719.24Z" fill="#7F886A"/>
<path fill-rule="evenodd" clip-rule="evenodd" d="M138.488 654.566C137.722 659.365 134.594 663.183 133.811 667.826C133.34 670.621 139.733 678.633 137.166 680.545C133.406 683.347 133.039 670.233 131.827 668.726C128.876 665.053 122.256 664.998 119.245 660.011C123.328 659.492 126.733 663.92 130.542 665.475C129.99 659.999 124.425 655.421 125.801 650.098C129.447 650.076 131.558 660.762 132.425 665.167C134.379 661.591 135.14 653.064 138.488 654.566Z" fill="#7F886A"/>
<path fill-rule="evenodd" clip-rule="evenodd" d="M112.378 606.536C111.901 610.797 108.914 616.235 108.198 620.483C107.887 622.329 113.957 633.121 110.364 633.013C107.018 632.912 107.44 622.859 105.718 620.697C102.623 616.811 96.3757 616.79 93.1379 611.983C97.4617 610.32 100.288 616.131 104.432 617.445C103.543 614.845 97.4503 603.662 99.6926 602.07C102.57 600.025 105.833 614.123 107.012 616.64C108.196 613.973 108.874 601.687 112.378 606.536Z" fill="#7F886A"/>
<path fill-rule="evenodd" clip-rule="evenodd" d="M81.9047 562.681C79.1303 566.442 73.8158 569.686 72.0751 573.899C70.4446 577.842 73.6658 583.294 69.3832 586.259C68.0233 583.121 68.8253 578.694 69.3962 575.297C70.27 570.106 63.9198 566.126 61.4834 560.629C65.5804 558.558 66.7423 565.827 69.7999 569.27C70.6273 567.156 69.4561 553.378 71.8025 553.754C76.3275 554.478 72.2688 565.815 72.1803 569.653C75.5341 567.485 79.6642 557.704 81.9047 562.681Z" fill="#7F886A"/>
<path fill-rule="evenodd" clip-rule="evenodd" d="M87.437 511.788C83.7956 514.398 77.098 517.723 74.9337 520.75C73.5025 522.747 72.646 532.567 69.9609 532.136C66.588 531.596 72.2795 522 72.6542 519.774C73.5307 514.568 66.7747 509.711 69.6979 504.682C72.0214 508.473 71.4506 512.651 73.8481 516.311C75.7656 513.156 75.9021 501.284 79.518 500.771C83.626 500.19 76.4305 514.619 76.2268 516.691C80.0496 515.474 84.3232 507.992 87.437 511.788Z" fill="#7F886A"/>
<path fill-rule="evenodd" clip-rule="evenodd" d="M116.882 445.843C114.912 449.539 105.635 450.966 104.972 454.902C104.29 458.95 102 466.821 98.318 465.408C102.935 453.625 100.678 451.695 97.753 439.735C102.085 438.962 102.024 446.653 103.293 450.368C104.904 447.185 105.84 435.829 108.964 434.83C113.134 433.493 106.572 449.16 105.672 450.749C109.85 449.902 115.123 441.527 116.882 445.843Z" fill="#7F886A"/>
<path fill-rule="evenodd" clip-rule="evenodd" d="M126.896 371.918C125.019 376.124 117.681 379.487 116.967 383.729C116.213 388.206 118.786 393.206 114.87 396.185C111.885 390.451 116.594 385.407 112.46 379.658C111.819 378.767 104.721 366.67 109.547 369.749C112.701 371.762 111.37 377.02 115.286 379.196C115.725 376.729 113.976 362.658 117.388 363.086C121.248 363.571 117.404 376.543 117.666 379.577C120.975 376.94 124.484 368.87 126.896 371.918Z" fill="#7F886A"/>
<path fill-rule="evenodd" clip-rule="evenodd" d="M101.206 314.202C98.8561 317.322 91.917 322.218 91.2771 326.012C90.5421 330.371 92.2487 335.16 89.18 338.468C86.9519 335.155 88.5345 331.409 89.1929 327.506C90.1961 321.547 82.0584 317.876 81.4786 311.653C85.6851 312.768 86.7476 317.99 89.5966 321.479C89.416 316.352 89.7106 310.011 89.8144 305.678C95.9922 304.806 91.9508 316.544 91.4798 321.173C95.3531 319.999 99.0258 308.936 101.206 314.202Z" fill="#7F886A"/>
<path fill-rule="evenodd" clip-rule="evenodd" d="M62.3904 269.005C66.279 273.988 72.1947 276.198 74.8683 281.968C76.8105 286.158 74.3563 295.713 80.2071 293.786C78.0957 287.101 78.0042 281.478 78.8402 276.512C79.6255 271.848 84.7218 268.869 84.7049 263.442C80.3127 264.972 80.0282 271.832 76.5605 275.539C75.7299 271.781 76.2418 256.637 72.9139 257.292C67.8113 258.295 74.3217 272.613 73.9813 276.344C70.3396 273.222 65.4663 263.749 62.3904 269.005Z" fill="#7F886A"/>
<path fill-rule="evenodd" clip-rule="evenodd" d="M27.7954 198.901C29.7338 201.477 40.8143 208.644 40.3734 211.269C39.8176 214.571 42.3022 224.533 44.719 225.365C46.5892 220.632 42.3386 215.828 42.8539 211.057C43.2674 207.221 46.6983 204.5 48.2181 200.953C48.6391 199.974 53.0329 190.975 48.028 194.832C45.4458 196.82 44.947 203.344 42.4619 206.122C41.6677 202.532 41.85 188.719 39.3093 188.562C33.5085 188.206 40.2708 203.02 39.389 206.238C34.6565 203.926 31.4216 194.583 27.7954 198.901Z" fill="#7F886A"/>
<path fill-rule="evenodd" clip-rule="evenodd" d="M-0.784889 140.125C2.3497 145.156 8.47843 147.475 11.1972 152.398C13.6198 156.783 11.9639 162.472 14.2542 166.897C20.0168 163.744 14.0312 158.029 14.0716 153.467C14.112 148.919 16.5374 147.815 18.7446 143.861C19.5608 142.399 23.9899 133.278 19.4477 136.056C16.9952 137.556 15.7243 144.957 13.8815 147.346C12.0946 143.836 13.7849 130.619 10.2349 129.099C6.08661 127.322 10.568 145.62 10.8083 147.464C6.52844 145.372 2.08503 136.179 -0.784889 140.125Z" fill="#7F886A"/>
<path fill-rule="evenodd" clip-rule="evenodd" d="M35.8934 284.865C39.7478 285.035 45.9982 285.163 49.6726 286.462C52.7394 287.547 62.7175 298.231 63.7373 297.242C67.0066 294.074 55.2574 287.118 53.8396 283.476C52.0651 278.916 54.3957 272.902 52.1733 267.98C48.674 270.812 52.3524 277.789 51.6612 281.907C50.6645 281.102 37.5153 263.835 37.5952 271.128C37.6431 275.435 47.5083 281.007 50.0721 284.09C45.389 284.615 34.6402 278.387 35.8934 284.865Z" fill="#7F886A"/>
<path fill-rule="evenodd" clip-rule="evenodd" d="M-27.2782 155.989C-23.5498 158.22 -17.0284 159.317 -12.7562 158.62C-7.37443 157.741 -4.00353 168.814 0.365776 169.553C2.21597 164.151 -7.60323 161.066 -9.53189 155.786C-11.4004 150.675 -6.61838 143.611 -12.387 140.102C-13.3374 144.428 -10.6362 148.97 -11.7115 154.219C-13.4827 152.791 -24.5756 136.308 -25.6774 142.846C-26.3282 146.711 -15.9486 152.398 -13.7957 155.713C-18.4039 156.635 -26.9803 150.868 -27.2782 155.989Z" fill="#7F886A"/>
<path fill-rule="evenodd" clip-rule="evenodd" d="M1.78311 215.462C6.40366 216.594 12.2345 215.324 16.4053 217.498C18.64 218.664 28.4766 230.061 29.6284 227.838C32.7017 221.909 18.8422 219.342 19.6296 214.665C20.4253 209.939 19.9972 202.862 18.063 198.577C14.4717 201.221 17.7683 208.082 17.5509 212.504C14.7115 210.386 4.65273 194.795 3.38521 202.317C2.99647 204.626 13.8316 212.663 15.9617 214.686C10.7744 215.083 -0.580549 209.306 1.78311 215.462Z" fill="#7F886A"/>
<circle cx="208.66" cy="2499.66" r="1.66" fill="#F3ECDB" fill-opacity="0.3"/>
<circle cx="217.513" cy="2499.66" r="1.66" fill="#F3ECDB" fill-opacity="0.3"/>
<circle cx="226.367" cy="2499.66" r="1.66" fill="#F3ECDB" fill-opacity="0.3"/>
<circle cx="235.22" cy="2499.66" r="1.66" fill="#F3ECDB" fill-opacity="0.3"/>
<circle cx="244.074" cy="2499.66" r="1.66" fill="#F3ECDB" fill-opacity="0.3"/>
<circle cx="208.66" cy="2508.51" r="1.66" fill="#F3ECDB" fill-opacity="0.3"/>
<circle cx="217.513" cy="2508.51" r="1.66" fill="#F3ECDB" fill-opacity="0.3"/>
<circle cx="226.367" cy="2508.51" r="1.66" fill="#F3ECDB" fill-opacity="0.3"/>
<circle cx="235.22" cy="2508.51" r="1.66" fill="#F3ECDB" fill-opacity="0.3"/>
<circle cx="244.074" cy="2508.51" r="1.66" fill="#F3ECDB" fill-opacity="0.3"/>
<circle cx="252.927" cy="2499.66" r="1.66" fill="#F3ECDB" fill-opacity="0.3"/>
<circle cx="261.78" cy="2499.66" r="1.66" fill="#F3ECDB" fill-opacity="0.3"/>
<circle cx="270.633" cy="2499.66" r="1.66" fill="#F3ECDB" fill-opacity="0.3"/>
<circle cx="279.487" cy="2499.66" r="1.66" fill="#F3ECDB" fill-opacity="0.3"/>
<circle cx="288.34" cy="2499.66" r="1.66" fill="#F3ECDB" fill-opacity="0.3"/>
<circle cx="252.927" cy="2508.51" r="1.66" fill="#F3ECDB" fill-opacity="0.3"/>
<circle cx="261.78" cy="2508.51" r="1.66" fill="#F3ECDB" fill-opacity="0.3"/>
<circle cx="270.633" cy="2508.51" r="1.66" fill="#F3ECDB" fill-opacity="0.3"/>
<circle cx="279.487" cy="2508.51" r="1.66" fill="#F3ECDB" fill-opacity="0.3"/>
<circle cx="288.34" cy="2508.51" r="1.66" fill="#F3ECDB" fill-opacity="0.3"/>
<circle cx="208.66" cy="2517.37" r="1.66" fill="#F3ECDB" fill-opacity="0.3"/>
<circle cx="217.513" cy="2517.37" r="1.66" fill="#F3ECDB" fill-opacity="0.3"/>
<circle cx="226.367" cy="2517.37" r="1.66" fill="#F3ECDB" fill-opacity="0.3"/>
<circle cx="235.22" cy="2517.37" r="1.66" fill="#F3ECDB" fill-opacity="0.3"/>
<circle cx="244.074" cy="2517.37" r="1.66" fill="#F3ECDB" fill-opacity="0.3"/>
<circle cx="208.66" cy="2526.22" r="1.66" fill="#F3ECDB" fill-opacity="0.3"/>
<circle cx="217.513" cy="2526.22" r="1.66" fill="#F3ECDB" fill-opacity="0.3"/>
<circle cx="226.367" cy="2526.22" r="1.66" fill="#F3ECDB" fill-opacity="0.3"/>
<circle cx="235.22" cy="2526.22" r="1.66" fill="#F3ECDB" fill-opacity="0.3"/>
<circle cx="244.074" cy="2526.22" r="1.66" fill="#F3ECDB" fill-opacity="0.3"/>
<circle cx="252.927" cy="2517.37" r="1.66" fill="#F3ECDB" fill-opacity="0.3"/>
<circle cx="261.78" cy="2517.37" r="1.66" fill="#F3ECDB" fill-opacity="0.3"/>
<circle cx="270.633" cy="2517.37" r="1.66" fill="#F3ECDB" fill-opacity="0.3"/>
<circle cx="279.487" cy="2517.37" r="1.66" fill="#F3ECDB" fill-opacity="0.3"/>
<circle cx="288.34" cy="2517.37" r="1.66" fill="#F3ECDB" fill-opacity="0.3"/>
<circle cx="252.927" cy="2526.22" r="1.66" fill="#F3ECDB" fill-opacity="0.3"/>
<circle cx="261.78" cy="2526.22" r="1.66" fill="#F3ECDB" fill-opacity="0.3"/>
<circle cx="270.633" cy="2526.22" r="1.66" fill="#F3ECDB" fill-opacity="0.3"/>
<circle cx="279.487" cy="2526.22" r="1.66" fill="#F3ECDB" fill-opacity="0.3"/>
<circle cx="288.34" cy="2526.22" r="1.66" fill="#F3ECDB" fill-opacity="0.3"/>
<circle cx="178.66" cy="1549.66" r="1.66" fill="#7F886A" fill-opacity="0.3"/>
<circle cx="187.513" cy="1549.66" r="1.66" fill="#7F886A" fill-opacity="0.3"/>
<circle cx="196.367" cy="1549.66" r="1.66" fill="#7F886A" fill-opacity="0.3"/>
<circle cx="205.22" cy="1549.66" r="1.66" fill="#7F886A" fill-opacity="0.3"/>
<circle cx="214.074" cy="1549.66" r="1.66" fill="#7F886A" fill-opacity="0.3"/>
<circle cx="178.66" cy="1558.51" r="1.66" fill="#7F886A" fill-opacity="0.3"/>
<circle cx="187.513" cy="1558.51" r="1.66" fill="#7F886A" fill-opacity="0.3"/>
<circle cx="196.367" cy="1558.51" r="1.66" fill="#7F886A" fill-opacity="0.3"/>
<circle cx="205.22" cy="1558.51" r="1.66" fill="#7F886A" fill-opacity="0.3"/>
<circle cx="214.074" cy="1558.51" r="1.66" fill="#7F886A" fill-opacity="0.3"/>
<circle cx="222.927" cy="1549.66" r="1.66" fill="#7F886A" fill-opacity="0.3"/>
<circle cx="231.78" cy="1549.66" r="1.66" fill="#7F886A" fill-opacity="0.3"/>
<circle cx="240.633" cy="1549.66" r="1.66" fill="#7F886A" fill-opacity="0.3"/>
<circle cx="249.487" cy="1549.66" r="1.66" fill="#7F886A" fill-opacity="0.3"/>
<circle cx="258.34" cy="1549.66" r="1.66" fill="#7F886A" fill-opacity="0.3"/>
<circle cx="222.927" cy="1558.51" r="1.66" fill="#7F886A" fill-opacity="0.3"/>
<circle cx="231.78" cy="1558.51" r="1.66" fill="#7F886A" fill-opacity="0.3"/>
<circle cx="240.633" cy="1558.51" r="1.66" fill="#7F886A" fill-opacity="0.3"/>
<circle cx="249.487" cy="1558.51" r="1.66" fill="#7F886A" fill-opacity="0.3"/>
<circle cx="258.34" cy="1558.51" r="1.66" fill="#7F886A" fill-opacity="0.3"/>
<circle cx="178.66" cy="1567.37" r="1.66" fill="#7F886A" fill-opacity="0.3"/>
<circle cx="187.513" cy="1567.37" r="1.66" fill="#7F886A" fill-opacity="0.3"/>
<circle cx="196.367" cy="1567.37" r="1.66" fill="#7F886A" fill-opacity="0.3"/>
<circle cx="205.22" cy="1567.37" r="1.66" fill="#7F886A" fill-opacity="0.3"/>
<circle cx="214.074" cy="1567.37" r="1.66" fill="#7F886A" fill-opacity="0.3"/>
<circle cx="178.66" cy="1576.22" r="1.66" fill="#7F886A" fill-opacity="0.3"/>
<circle cx="187.513" cy="1576.22" r="1.66" fill="#7F886A" fill-opacity="0.3"/>
<circle cx="196.367" cy="1576.22" r="1.66" fill="#7F886A" fill-opacity="0.3"/>
<circle cx="205.22" cy="1576.22" r="1.66" fill="#7F886A" fill-opacity="0.3"/>
<circle cx="214.074" cy="1576.22" r="1.66" fill="#7F886A" fill-opacity="0.3"/>
<circle cx="222.927" cy="1567.37" r="1.66" fill="#7F886A" fill-opacity="0.3"/>
<circle cx="231.78" cy="1567.37" r="1.66" fill="#7F886A" fill-opacity="0.3"/>
<circle cx="240.633" cy="1567.37" r="1.66" fill="#7F886A" fill-opacity="0.3"/>
<circle cx="249.487" cy="1567.37" r="1.66" fill="#7F886A" fill-opacity="0.3"/>
<circle cx="258.34" cy="1567.37" r="1.66" fill="#7F886A" fill-opacity="0.3"/>
<circle cx="222.927" cy="1576.22" r="1.66" fill="#7F886A" fill-opacity="0.3"/>
<circle cx="231.78" cy="1576.22" r="1.66" fill="#7F886A" fill-opacity="0.3"/>
<circle cx="240.633" cy="1576.22" r="1.66" fill="#7F886A" fill-opacity="0.3"/>
<circle cx="249.487" cy="1576.22" r="1.66" fill="#7F886A" fill-opacity="0.3"/>
<circle cx="258.34" cy="1576.22" r="1.66" fill="#7F886A" fill-opacity="0.3"/>
<circle cx="403.944" cy="534.944" r="1.94444" fill="#7F886A" fill-opacity="0.3"/>
<circle cx="414.315" cy="534.944" r="1.94444" fill="#7F886A" fill-opacity="0.3"/>
<circle cx="424.685" cy="534.944" r="1.94444" fill="#7F886A" fill-opacity="0.3"/>
<circle cx="435.055" cy="534.944" r="1.94444" fill="#7F886A" fill-opacity="0.3"/>
<circle cx="445.426" cy="534.944" r="1.94444" fill="#7F886A" fill-opacity="0.3"/>
<circle cx="403.944" cy="545.315" r="1.94444" fill="#7F886A" fill-opacity="0.3"/>
<circle cx="414.315" cy="545.315" r="1.94444" fill="#7F886A" fill-opacity="0.3"/>
<circle cx="424.685" cy="545.315" r="1.94444" fill="#7F886A" fill-opacity="0.3"/>
<circle cx="435.055" cy="545.315" r="1.94444" fill="#7F886A" fill-opacity="0.3"/>
<circle cx="445.426" cy="545.315" r="1.94444" fill="#7F886A" fill-opacity="0.3"/>
<circle cx="455.796" cy="534.944" r="1.94444" fill="#7F886A" fill-opacity="0.3"/>
<circle cx="466.166" cy="534.944" r="1.94444" fill="#7F886A" fill-opacity="0.3"/>
<circle cx="476.537" cy="534.944" r="1.94444" fill="#7F886A" fill-opacity="0.3"/>
<circle cx="486.907" cy="534.944" r="1.94444" fill="#7F886A" fill-opacity="0.3"/>
<circle cx="497.277" cy="534.944" r="1.94444" fill="#7F886A" fill-opacity="0.3"/>
<circle cx="455.796" cy="545.315" r="1.94444" fill="#7F886A" fill-opacity="0.3"/>
<circle cx="466.166" cy="545.315" r="1.94444" fill="#7F886A" fill-opacity="0.3"/>
<circle cx="476.537" cy="545.315" r="1.94444" fill="#7F886A" fill-opacity="0.3"/>
<circle cx="486.907" cy="545.315" r="1.94444" fill="#7F886A" fill-opacity="0.3"/>
<circle cx="497.277" cy="545.315" r="1.94444" fill="#7F886A" fill-opacity="0.3"/>
<circle cx="403.944" cy="555.685" r="1.94444" fill="#7F886A" fill-opacity="0.3"/>
<circle cx="414.315" cy="555.685" r="1.94444" fill="#7F886A" fill-opacity="0.3"/>
<circle cx="424.685" cy="555.685" r="1.94444" fill="#7F886A" fill-opacity="0.3"/>
<circle cx="435.055" cy="555.685" r="1.94444" fill="#7F886A" fill-opacity="0.3"/>
<circle cx="445.426" cy="555.685" r="1.94444" fill="#7F886A" fill-opacity="0.3"/>
<circle cx="403.944" cy="566.056" r="1.94444" fill="#7F886A" fill-opacity="0.3"/>
<circle cx="414.315" cy="566.056" r="1.94444" fill="#7F886A" fill-opacity="0.3"/>
<circle cx="424.685" cy="566.056" r="1.94444" fill="#7F886A" fill-opacity="0.3"/>
<circle cx="435.055" cy="566.056" r="1.94444" fill="#7F886A" fill-opacity="0.3"/>
<circle cx="445.426" cy="566.056" r="1.94444" fill="#7F886A" fill-opacity="0.3"/>
<circle cx="455.796" cy="555.685" r="1.94444" fill="#7F886A" fill-opacity="0.3"/>
<circle cx="466.166" cy="555.685" r="1.94444" fill="#7F886A" fill-opacity="0.3"/>
<circle cx="476.537" cy="555.685" r="1.94444" fill="#7F886A" fill-opacity="0.3"/>
<circle cx="486.907" cy="555.685" r="1.94444" fill="#7F886A" fill-opacity="0.3"/>
<circle cx="497.277" cy="555.685" r="1.94444" fill="#7F886A" fill-opacity="0.3"/>
<circle cx="455.796" cy="566.056" r="1.94444" fill="#7F886A" fill-opacity="0.3"/>
<circle cx="466.166" cy="566.056" r="1.94444" fill="#7F886A" fill-opacity="0.3"/>
<circle cx="476.537" cy="566.056" r="1.94444" fill="#7F886A" fill-opacity="0.3"/>
<circle cx="486.907" cy="566.056" r="1.94444" fill="#7F886A" fill-opacity="0.3"/>
<circle cx="497.277" cy="566.056" r="1.94444" fill="#7F886A" fill-opacity="0.3"/>
<circle cx="442.944" cy="92.9444" r="1.94444" fill="#7F886A" fill-opacity="0.3"/>
<circle cx="453.315" cy="92.9444" r="1.94444" fill="#7F886A" fill-opacity="0.3"/>
<circle cx="463.685" cy="92.9444" r="1.94444" fill="#7F886A" fill-opacity="0.3"/>
<circle cx="474.055" cy="92.9444" r="1.94444" fill="#7F886A" fill-opacity="0.3"/>
<circle cx="484.426" cy="92.9444" r="1.94444" fill="#7F886A" fill-opacity="0.3"/>
<circle cx="442.944" cy="103.315" r="1.94444" fill="#7F886A" fill-opacity="0.3"/>
<circle cx="453.315" cy="103.315" r="1.94444" fill="#7F886A" fill-opacity="0.3"/>
<circle cx="463.685" cy="103.315" r="1.94444" fill="#7F886A" fill-opacity="0.3"/>
<circle cx="474.055" cy="103.315" r="1.94444" fill="#7F886A" fill-opacity="0.3"/>
<circle cx="484.426" cy="103.315" r="1.94444" fill="#7F886A" fill-opacity="0.3"/>
<circle cx="494.796" cy="92.9444" r="1.94444" fill="#7F886A" fill-opacity="0.3"/>
<circle cx="505.166" cy="92.9444" r="1.94444" fill="#7F886A" fill-opacity="0.3"/>
<circle cx="515.537" cy="92.9444" r="1.94444" fill="#7F886A" fill-opacity="0.3"/>
<circle cx="525.907" cy="92.9444" r="1.94444" fill="#7F886A" fill-opacity="0.3"/>
<circle cx="536.277" cy="92.9444" r="1.94444" fill="#7F886A" fill-opacity="0.3"/>
<circle cx="494.796" cy="103.315" r="1.94444" fill="#7F886A" fill-opacity="0.3"/>
<circle cx="505.166" cy="103.315" r="1.94444" fill="#7F886A" fill-opacity="0.3"/>
<circle cx="515.537" cy="103.315" r="1.94444" fill="#7F886A" fill-opacity="0.3"/>
<circle cx="525.907" cy="103.315" r="1.94444" fill="#7F886A" fill-opacity="0.3"/>
<circle cx="536.277" cy="103.315" r="1.94444" fill="#7F886A" fill-opacity="0.3"/>
<circle cx="442.944" cy="113.685" r="1.94444" fill="#7F886A" fill-opacity="0.3"/>
<circle cx="453.315" cy="113.685" r="1.94444" fill="#7F886A" fill-opacity="0.3"/>
<circle cx="463.685" cy="113.685" r="1.94444" fill="#7F886A" fill-opacity="0.3"/>
<circle cx="474.055" cy="113.685" r="1.94444" fill="#7F886A" fill-opacity="0.3"/>
<circle cx="484.426" cy="113.685" r="1.94444" fill="#7F886A" fill-opacity="0.3"/>
<circle cx="442.944" cy="124.056" r="1.94444" fill="#7F886A" fill-opacity="0.3"/>
<circle cx="453.315" cy="124.056" r="1.94444" fill="#7F886A" fill-opacity="0.3"/>
<circle cx="463.685" cy="124.056" r="1.94444" fill="#7F886A" fill-opacity="0.3"/>
<circle cx="474.055" cy="124.056" r="1.94444" fill="#7F886A" fill-opacity="0.3"/>
<circle cx="484.426" cy="124.056" r="1.94444" fill="#7F886A" fill-opacity="0.3"/>
<circle cx="494.796" cy="113.685" r="1.94444" fill="#7F886A" fill-opacity="0.3"/>
<circle cx="505.166" cy="113.685" r="1.94444" fill="#7F886A" fill-opacity="0.3"/>
<circle cx="515.537" cy="113.685" r="1.94444" fill="#7F886A" fill-opacity="0.3"/>
<circle cx="525.907" cy="113.685" r="1.94444" fill="#7F886A" fill-opacity="0.3"/>
<circle cx="536.277" cy="113.685" r="1.94444" fill="#7F886A" fill-opacity="0.3"/>
<circle cx="494.796" cy="124.056" r="1.94444" fill="#7F886A" fill-opacity="0.3"/>
<circle cx="505.166" cy="124.056" r="1.94444" fill="#7F886A" fill-opacity="0.3"/>
<circle cx="515.537" cy="124.056" r="1.94444" fill="#7F886A" fill-opacity="0.3"/>
<circle cx="525.907" cy="124.056" r="1.94444" fill="#7F886A" fill-opacity="0.3"/>
<circle cx="536.277" cy="124.056" r="1.94444" fill="#7F886A" fill-opacity="0.3"/>
<line x1="183.352" y1="1915.61" x2="177.613" y2="1921.35" stroke="#7F886A"/>
<line x1="183.352" y1="1907.01" x2="169.005" y2="1921.35" stroke="#7F886A"/>
<line x1="183.353" y1="1898.4" x2="160.396" y2="1921.35" stroke="#7F886A"/>
<line x1="183.353" y1="1889.79" x2="151.788" y2="1921.35" stroke="#7F886A"/>
<line x1="183.353" y1="1881.18" x2="143.179" y2="1921.35" stroke="#7F886A"/>
<line x1="183.354" y1="1872.57" x2="134.571" y2="1921.35" stroke="#7F886A"/>
<line x1="183.353" y1="1863.96" x2="125.962" y2="1921.35" stroke="#7F886A"/>
<line x1="183.353" y1="1855.35" x2="117.354" y2="1921.35" stroke="#7F886A"/>
<line x1="116.647" y1="1914.07" x2="174.038" y2="1856.68" stroke="#7F886A"/>
<line x1="116.647" y1="1905.46" x2="165.429" y2="1856.68" stroke="#7F886A"/>
<line x1="116.647" y1="1896.85" x2="156.82" y2="1856.68" stroke="#7F886A"/>
<line x1="116.647" y1="1888.24" x2="148.212" y2="1856.68" stroke="#7F886A"/>
<line x1="116.647" y1="1879.63" x2="139.603" y2="1856.68" stroke="#7F886A"/>
<line x1="116.647" y1="1871.02" x2="130.994" y2="1856.68" stroke="#7F886A"/>
<line x1="116.647" y1="1862.41" x2="122.386" y2="1856.68" stroke="#7F886A"/>
<line x1="750.352" y1="1661.05" x2="745.048" y2="1666.35" stroke="#7F886A"/>
<line x1="750.352" y1="1653.09" x2="737.091" y2="1666.35" stroke="#7F886A"/>
<line x1="750.353" y1="1645.14" x2="729.135" y2="1666.35" stroke="#7F886A"/>
<line x1="750.353" y1="1637.18" x2="721.179" y2="1666.35" stroke="#7F886A"/>
<line x1="750.353" y1="1629.22" x2="713.222" y2="1666.35" stroke="#7F886A"/>
<line x1="750.354" y1="1621.27" x2="705.267" y2="1666.35" stroke="#7F886A"/>
<line x1="750.353" y1="1613.31" x2="697.31" y2="1666.35" stroke="#7F886A"/>
<line x1="750.353" y1="1605.35" x2="689.353" y2="1666.35" stroke="#7F886A"/>
<line x1="688.646" y1="1659.56" x2="741.69" y2="1606.52" stroke="#7F886A"/>
<line x1="688.646" y1="1651.61" x2="733.733" y2="1606.52" stroke="#7F886A"/>
<line x1="688.646" y1="1643.65" x2="725.777" y2="1606.52" stroke="#7F886A"/>
<line x1="688.646" y1="1635.7" x2="717.82" y2="1606.52" stroke="#7F886A"/>
<line x1="688.646" y1="1627.74" x2="709.864" y2="1606.52" stroke="#7F886A"/>
<line x1="688.646" y1="1619.78" x2="701.907" y2="1606.52" stroke="#7F886A"/>
<line x1="688.646" y1="1611.83" x2="693.951" y2="1606.52" stroke="#7F886A"/>
<line x1="1040.35" y1="204.049" x2="1035.05" y2="209.354" stroke="#7F886A"/>
<line x1="1040.35" y1="196.093" x2="1027.09" y2="209.354" stroke="#7F886A"/>
<line x1="1040.35" y1="188.136" x2="1019.14" y2="209.354" stroke="#7F886A"/>
<line x1="1040.35" y1="180.18" x2="1011.18" y2="209.354" stroke="#7F886A"/>
<line x1="1040.35" y1="172.223" x2="1003.22" y2="209.354" stroke="#7F886A"/>
<line x1="1040.35" y1="164.267" x2="995.267" y2="209.354" stroke="#7F886A"/>
<line x1="1040.35" y1="156.31" x2="987.31" y2="209.354" stroke="#7F886A"/>
<line x1="1040.35" y1="148.354" x2="979.353" y2="209.353" stroke="#7F886A"/>
<line x1="978.646" y1="202.565" x2="1031.69" y2="149.522" stroke="#7F886A"/>
<line x1="978.646" y1="194.609" x2="1023.73" y2="149.522" stroke="#7F886A"/>
<line x1="978.646" y1="186.652" x2="1015.78" y2="149.522" stroke="#7F886A"/>
<line x1="978.646" y1="178.696" x2="1007.82" y2="149.522" stroke="#7F886A"/>
<line x1="978.646" y1="170.739" x2="999.864" y2="149.522" stroke="#7F886A"/>
<line x1="978.646" y1="162.783" x2="991.907" y2="149.522" stroke="#7F886A"/>
<line x1="978.646" y1="154.826" x2="983.951" y2="149.522" stroke="#7F886A"/>
<line x1="459.352" y1="421.049" x2="454.048" y2="426.354" stroke="#7F886A"/>
<line x1="459.352" y1="413.093" x2="446.091" y2="426.354" stroke="#7F886A"/>
<line x1="459.353" y1="405.136" x2="438.135" y2="426.354" stroke="#7F886A"/>
<line x1="459.353" y1="397.18" x2="430.179" y2="426.353" stroke="#7F886A"/>
<line x1="459.353" y1="389.223" x2="422.222" y2="426.353" stroke="#7F886A"/>
<line x1="459.354" y1="381.267" x2="414.267" y2="426.354" stroke="#7F886A"/>
<line x1="459.353" y1="373.31" x2="406.31" y2="426.354" stroke="#7F886A"/>
<line x1="459.353" y1="365.354" x2="398.353" y2="426.353" stroke="#7F886A"/>
<line x1="397.646" y1="419.565" x2="450.69" y2="366.522" stroke="#7F886A"/>
<line x1="397.646" y1="411.609" x2="442.733" y2="366.522" stroke="#7F886A"/>
<line x1="397.646" y1="403.652" x2="434.777" y2="366.522" stroke="#7F886A"/>
<line x1="397.646" y1="395.696" x2="426.82" y2="366.522" stroke="#7F886A"/>
<line x1="397.646" y1="387.739" x2="418.864" y2="366.522" stroke="#7F886A"/>
<line x1="397.646" y1="379.783" x2="410.907" y2="366.522" stroke="#7F886A"/>
<line x1="397.646" y1="371.826" x2="402.951" y2="366.522" stroke="#7F886A"/>
</svg>
