<svg width="343" height="438" viewBox="0 0 343 438" fill="none" xmlns="http://www.w3.org/2000/svg">
<path fill-rule="evenodd" clip-rule="evenodd" d="M145.818 408.853C144.568 411.895 143.704 415.809 143.478 419.019C143.165 423.438 136.61 427.188 133.499 429.976C137.353 432.564 141.175 424.577 145.333 423.405C149.599 422.202 153.795 424.526 157.865 422.258C154.767 419.148 150.583 423.241 146.564 421.294C149.417 419.01 157.252 415.597 157.509 411.992C157.747 408.621 146.892 418.983 145.56 420.177C144.883 416.19 149.632 410.694 145.818 408.853" fill="#7F886A"/>
<path fill-rule="evenodd" clip-rule="evenodd" d="M185.8 363.954C183.133 367.46 182.167 373.136 178.986 376.108C177.481 377.513 167.476 379.307 169.891 382.241C171.3 383.953 178.641 377.544 181.068 377.265C185.435 376.769 189.899 380.823 194.454 379.389C191.397 377.026 187.03 377.328 183.304 376.27C185.978 374.702 196.187 371.856 196.216 369.741C196.277 365.484 184.835 373.273 182.879 374.636C183.679 370.732 190.791 363.487 185.8 363.954Z" fill="#7F886A"/>
<path fill-rule="evenodd" clip-rule="evenodd" d="M219.346 325.813C216.473 329.104 215.885 334.963 212.533 337.967C209.516 340.67 202.691 340.065 202.86 344.619C206.345 344.265 210.279 340.029 214.039 339.642C218.509 339.184 223.419 342.202 227.422 341.763C226.098 338.726 220.168 340.122 216.854 338.128C218.688 337.317 229.61 333.795 229.727 332.138C230.052 327.557 218.367 335.15 216.427 336.494C216.581 332.947 223.236 327.696 219.346 325.813Z" fill="#7F886A"/>
<path fill-rule="evenodd" clip-rule="evenodd" d="M260.694 284.74C258.912 290.111 260.028 295.266 256.893 300.245C249.484 312.012 254.347 304.543 260.786 298.774C261.775 297.888 275.21 298.363 274.048 294.956C273.57 293.552 264.844 296.576 263.098 296.702C263.906 295.432 276.301 283.236 270.991 284.59C267.631 285.445 264.056 292.598 261.592 295.026C260.648 291.537 265.32 283.37 260.694 284.74Z" fill="#7F886A"/>
<path fill-rule="evenodd" clip-rule="evenodd" d="M268.097 233.753C268.249 238.357 270.411 243.421 269.269 247.827C268.331 251.449 263.44 254.18 265.847 257.95C271.242 253.217 270.278 249.089 276.476 245.4C287.39 238.908 282.293 241.633 273.816 244.761C274.571 241.289 281.335 234.949 280.128 232.048C278.236 227.496 272.567 242.082 271.733 243.604C270.039 240.495 272.327 232.533 268.097 233.753Z" fill="#7F886A"/>
<path fill-rule="evenodd" clip-rule="evenodd" d="M255.809 170.162C256.256 174.477 257.905 178.796 257.595 183.179C257.304 187.306 253.574 190.435 252.478 194.319C258.395 194.003 256.996 184.581 263.861 182.605C265.673 182.082 273.557 179.122 271.55 177.229C270.312 176.06 263.339 181.072 260.949 181.687C262.377 179.396 269.243 171.654 268.342 169.015C266.765 164.41 260.595 178.747 259.945 180.57C257.25 176.917 260.344 169.389 255.809 170.162Z" fill="#7F886A"/>
<path fill-rule="evenodd" clip-rule="evenodd" d="M261.153 109.926C260.61 113.408 261.399 117.447 260.393 120.689C259.333 124.105 251.697 130.583 253.076 132.285C255.325 135.059 259.965 124.955 262.902 123.481C266.525 121.664 271.065 123.425 275.007 120.699C271.826 118.863 267.696 121.851 263.555 121.887C264.978 120.498 276.882 108.157 271.447 109.773C268.85 110.546 264.311 118.239 263.129 120.252C262.769 120.24 262.409 120.225 262.049 120.212C262.028 116.257 265.346 109.527 261.153 109.926Z" fill="#7F886A"/>
<path fill-rule="evenodd" clip-rule="evenodd" d="M296.39 63.2174C295.016 66.4991 296.21 70.8605 295.052 74.4988C294.206 77.1574 286.681 83.5972 287.234 85.5374C288.013 88.2692 295.966 77.2326 298.102 77.3129C301.591 77.4441 306.763 76.5001 309.668 74.5106C306.264 72.388 302.318 75.7802 298.793 75.1801C299.126 74.6049 311.507 61.5649 306.109 63.5848C302.67 64.8703 300.062 71.6131 296.709 74.0244C296.274 71.2134 297.842 65.8994 298.55 63.3006C297.566 62.9462 297.063 63.1496 296.39 63.2174Z" fill="#7F886A"/>
<path fill-rule="evenodd" clip-rule="evenodd" d="M124.903 398.355C125.634 402.377 129.71 406.931 129.429 410.937C129.37 411.749 123.652 424.83 128.705 421.162C132.15 418.663 128.777 410.966 134.477 408.429C135.68 407.893 145.07 400.508 140.948 401.118C138.455 401.487 135.044 406.682 132.356 407.809C133.216 404.841 138.266 396.315 136.582 393.938C134.202 390.574 131.129 405.444 130.271 406.65C128.423 403.929 128.065 394.571 124.903 398.355Z" fill="#7F886A"/>
<path fill-rule="evenodd" clip-rule="evenodd" d="M169.091 347.667C168.747 352.015 170.674 355.913 170.378 360.126C170.198 362.663 162.918 368.58 164.758 370.707C167.453 373.824 170.543 362.374 171.922 361.263C175.276 358.554 181.074 359.662 184.759 355.81C181.3 354.64 177.389 357.934 173.731 358.633C175.371 353.922 181.201 350.875 181.123 345.96C177.941 345.304 173.839 354.318 172.151 358.034C171.198 354.553 172.334 346.933 169.091 347.667Z" fill="#7F886A"/>
<path fill-rule="evenodd" clip-rule="evenodd" d="M202.068 310.055C201.585 313.88 203.047 319.176 202.774 323.03C202.656 324.706 195.072 333.12 198.235 333.654C201.18 334.15 202.935 325.249 204.897 323.652C208.423 320.781 213.888 321.854 217.733 318.199C214.305 315.983 210.608 320.591 206.708 321.021C208.034 318.894 215.722 310.14 214.098 308.351C212.015 306.052 206.186 317.86 204.624 319.864C204.152 317.316 206.155 306.41 202.068 310.055Z" fill="#7F886A"/>
<path fill-rule="evenodd" clip-rule="evenodd" d="M237.976 276.868C239.606 280.655 243.565 284.432 244.197 288.434C244.789 292.18 240.822 296.405 243.938 299.756C245.79 297.238 246.024 293.212 246.243 290.129C246.575 285.42 252.966 283.035 256.256 278.635C253.113 276.101 250.562 282.28 247.163 284.768C246.886 282.767 250.82 270.876 248.69 270.796C244.583 270.641 245.735 281.303 245.002 284.688C242.529 282.199 240.985 272.89 237.976 276.868Z" fill="#7F886A"/>
<path fill-rule="evenodd" clip-rule="evenodd" d="M243.906 231.223C246.537 234.15 251.688 238.24 252.94 241.274C253.769 243.278 252.444 252.048 254.881 252.139C257.943 252.254 254.996 242.836 255.138 240.816C255.472 236.093 262.402 233.009 260.91 228.083C258.079 231.005 257.695 234.773 254.827 237.568C253.817 234.463 256.206 224.016 253.154 222.934C249.687 221.707 252.927 235.631 252.668 237.485C249.584 235.749 247.429 228.434 243.906 231.223Z" fill="#7F886A"/>
<path fill-rule="evenodd" clip-rule="evenodd" d="M232.121 168.191C233.062 171.78 240.868 174.654 240.616 178.225C240.356 181.898 240.696 189.208 244.211 188.611C242.666 177.46 245.046 176.16 250.128 166.171C246.506 164.736 244.934 171.499 243.041 174.538C242.305 171.462 243.885 161.329 241.367 159.906C238.005 158.004 240.43 172.904 240.881 174.457C237.409 172.983 234.57 164.71 232.121 168.191Z" fill="#7F886A"/>
<path fill-rule="evenodd" clip-rule="evenodd" d="M239.003 101.545C239.755 105.565 245.458 109.8 245.186 113.649C244.899 117.711 241.594 121.651 244.387 124.951C248.207 120.438 245.157 115.187 249.984 110.862C250.733 110.191 259.491 100.811 254.623 102.672C251.441 103.888 251.495 108.736 247.612 109.963C247.749 107.72 252.251 95.672 249.178 95.4524C245.702 95.2035 246.322 107.263 245.452 109.882C243.117 106.988 241.755 99.2905 239.003 101.545Z" fill="#7F886A"/>
<path fill-rule="evenodd" clip-rule="evenodd" d="M273.661 55.3553C275.056 58.5057 280.086 64.0166 279.844 67.4588C279.566 71.4144 277.063 75.3204 279.046 78.7612C281.693 76.2414 281.101 72.6767 281.35 69.1345C281.732 63.728 289.62 61.9269 291.441 56.5644C287.529 56.8088 285.497 61.2072 282.27 63.7732C283.511 59.3032 284.593 53.6846 285.418 49.8627C280.203 48.0176 281.255 59.0291 280.689 63.1751C277.552 61.4682 276.679 51.1132 273.661 55.3553Z" fill="#7F886A"/>
<path fill-rule="evenodd" clip-rule="evenodd" d="M317.145 22.4544C312.694 26.149 307.056 27.0565 303.501 31.6549C300.918 34.9943 301.045 43.8123 296.338 41.0981C299.596 35.5974 300.864 30.6767 301.182 26.1708C301.481 21.9386 297.656 18.4325 298.817 13.671C302.333 15.7817 301.132 21.8544 303.38 25.7148C304.9 22.5608 307.651 9.1749 310.422 10.3314C314.669 12.1042 305.955 23.5367 305.464 26.8725C309.307 24.7671 315.567 17.3016 317.145 22.4544Z" fill="#7F886A"/>
<path fill-rule="evenodd" clip-rule="evenodd" d="M336.949 41.0001C333.544 40.4756 328.054 39.4963 324.568 39.995C321.659 40.4113 310.681 48.048 309.998 47.002C307.81 43.6495 319.548 39.595 321.557 36.6446C324.071 32.9513 323.305 27.2641 326.287 23.331C328.747 26.4284 324.058 31.9114 323.792 35.6483C324.833 35.1156 339.974 22.2525 338.363 28.6423C337.411 32.4154 327.612 35.5836 324.72 37.8419C328.702 39.1211 339.412 35.5316 336.949 41.0001Z" fill="#7F886A"/>
</svg>
