<svg width="360" height="642" viewBox="0 0 360 642" fill="none" xmlns="http://www.w3.org/2000/svg">
<path fill-rule="evenodd" clip-rule="evenodd" d="M147.802 609.11C148.368 612.688 148.283 617.128 147.687 620.666C146.868 625.536 153.038 631.035 155.702 634.741C150.816 636.716 148.74 627.206 144.51 625.03C140.169 622.795 134.977 624.409 131.13 621.06C135.329 618.354 138.821 623.711 143.72 622.468C141.205 619.366 133.549 613.955 134.216 609.982C134.841 606.266 143.969 619.886 145.11 621.472C146.896 617.287 143.155 610.283 147.802 609.11" fill="#7F886A"/>
<path fill-rule="evenodd" clip-rule="evenodd" d="M115.961 551.641C117.952 556.031 117.516 562.409 120.207 566.329C121.482 568.183 131.932 572.306 128.525 574.97C126.538 576.525 120.207 567.964 117.63 567.135C112.994 565.646 107.056 569.082 102.46 566.534C106.418 564.63 111.106 565.908 115.451 565.567C112.944 563.282 102.546 557.972 103.071 555.666C104.122 551.028 114.567 561.977 116.344 563.884C116.497 559.468 110.635 550.049 115.961 551.641Z" fill="#7F886A"/>
<path fill-rule="evenodd" clip-rule="evenodd" d="M89.3686 502.912C91.641 507.113 90.7438 513.607 93.6145 517.6C96.1977 521.193 103.807 522.018 102.426 526.931C98.7152 525.789 95.5326 520.331 91.5303 519.094C86.7705 517.624 80.6177 519.837 76.3629 518.492C78.6066 515.478 84.7135 518.284 88.8548 516.837C87.0653 515.557 76.067 509.357 76.3746 507.53C77.2234 502.482 87.9849 513.272 89.7501 515.154C90.5134 511.266 84.6272 504.114 89.3686 502.912Z" fill="#7F886A"/>
<path fill-rule="evenodd" clip-rule="evenodd" d="M55.0306 449.306C55.5661 455.53 52.9933 460.889 55.1081 466.981C60.1056 481.378 56.7584 472.205 51.2447 464.536C50.398 463.359 35.6063 460.956 37.7704 457.506C38.6603 456.084 47.392 461.267 49.2648 461.783C48.7164 460.227 38.3887 444.281 43.8302 446.905C47.2729 448.564 49.297 457.114 51.3489 460.289C53.2958 456.702 50.3412 446.812 55.0306 449.306Z" fill="#7F886A"/>
<path fill-rule="evenodd" clip-rule="evenodd" d="M60.3592 392.288C58.984 397.259 55.2941 402.292 55.3836 407.328C55.4561 411.468 60.0783 415.498 56.4607 419.073C51.8141 412.757 53.9507 408.481 48.153 403.125C37.944 393.699 42.7932 397.767 51.2249 403.008C51.313 399.072 45.5937 390.712 47.6739 387.822C50.9343 383.286 53.2922 400.369 53.8028 402.203C56.4686 399.193 56.062 390.043 60.3592 392.288Z" fill="#7F886A"/>
<path fill-rule="evenodd" clip-rule="evenodd" d="M90.5007 325.844C88.8787 330.436 85.9445 334.771 85.1324 339.601C84.3655 344.15 87.6154 348.36 87.7919 352.819C81.4155 351.19 85.4172 341.255 78.4419 337.617C76.6013 336.654 68.7723 331.725 71.4604 330.104C73.1193 329.103 79.4151 336.064 81.8627 337.251C80.9048 334.452 75.4435 324.547 77.1197 321.875C80.0512 317.213 83.0212 334.133 83.2521 336.255C87.1529 332.871 85.7531 324.019 90.5007 325.844Z" fill="#7F886A"/>
<path fill-rule="evenodd" clip-rule="evenodd" d="M100.508 259.221C100.187 263.123 98.264 267.34 98.5112 271.082C98.7713 275.024 105.405 283.723 103.453 285.274C100.269 287.799 97.858 275.811 95.0389 273.571C91.561 270.809 86.1425 271.737 82.5547 267.918C86.5098 266.614 90.2333 270.758 94.7446 271.698C93.5559 269.879 83.8025 253.881 89.3104 256.818C91.9427 258.222 94.8776 267.569 95.6391 270.013C96.0351 270.078 96.4315 270.14 96.8288 270.204C97.8905 265.91 96.0357 257.876 100.508 259.221Z" fill="#7F886A"/>
<path fill-rule="evenodd" clip-rule="evenodd" d="M74.3232 200.814C74.9611 204.679 72.5125 209.159 72.8211 213.364C73.0461 216.437 79.5693 225.07 78.4559 227.058C76.8887 229.858 71.1054 216.136 68.7525 215.76C64.9097 215.144 59.5107 212.995 56.8619 210.202C61.1356 208.635 64.5527 213.178 68.5582 213.292C68.3458 212.594 58.255 195.734 63.6177 199.102C67.0343 201.246 68.1102 209.14 71.137 212.489C72.3505 209.529 72.0336 203.413 71.9434 200.435C73.1113 200.264 73.6065 200.594 74.3232 200.814Z" fill="#7F886A"/>
<path fill-rule="evenodd" clip-rule="evenodd" d="M173.398 602.24C171.543 606.451 165.898 610.515 165.153 614.93C165.003 615.825 167.81 631.283 163.257 626.199C160.153 622.735 165.857 615.103 160.301 611.107C159.128 610.264 150.817 600.198 155.156 601.757C157.781 602.699 160.14 609.085 162.779 610.895C162.62 607.482 159.346 597.12 161.808 594.902C165.29 591.764 164.74 608.591 165.359 610.088C168.092 607.532 170.94 597.441 173.398 602.24Z" fill="#7F886A"/>
<path fill-rule="evenodd" clip-rule="evenodd" d="M138.488 537.566C137.722 542.365 134.594 546.183 133.811 550.826C133.34 553.621 139.733 561.633 137.166 563.545C133.406 566.347 133.039 553.233 131.827 551.726C128.876 548.053 122.256 547.998 119.245 543.011C123.328 542.492 126.733 546.92 130.542 548.475C129.99 542.999 124.425 538.421 125.801 533.098C129.447 533.076 131.558 543.762 132.425 548.167C134.379 544.591 135.14 536.064 138.488 537.566Z" fill="#7F886A"/>
<path fill-rule="evenodd" clip-rule="evenodd" d="M112.378 489.536C111.901 493.797 108.914 499.235 108.198 503.483C107.887 505.329 113.957 516.121 110.364 516.013C107.018 515.912 107.44 505.859 105.718 503.697C102.623 499.811 96.3757 499.79 93.1379 494.983C97.4617 493.32 100.288 499.131 104.432 500.445C103.543 497.845 97.4503 486.662 99.6926 485.07C102.57 483.025 105.833 497.123 107.012 499.64C108.196 496.973 108.874 484.687 112.378 489.536Z" fill="#7F886A"/>
<path fill-rule="evenodd" clip-rule="evenodd" d="M81.9047 445.681C79.1303 449.442 73.8158 452.686 72.0751 456.899C70.4446 460.842 73.6658 466.294 69.3832 469.259C68.0233 466.121 68.8253 461.694 69.3962 458.297C70.27 453.106 63.9198 449.126 61.4834 443.629C65.5804 441.558 66.7423 448.827 69.7999 452.27C70.6273 450.156 69.4561 436.378 71.8025 436.754C76.3275 437.478 72.2688 448.815 72.1803 452.653C75.5341 450.485 79.6642 440.704 81.9047 445.681Z" fill="#7F886A"/>
<path fill-rule="evenodd" clip-rule="evenodd" d="M87.437 394.788C83.7956 397.398 77.098 400.723 74.9337 403.75C73.5025 405.747 72.646 415.567 69.9609 415.136C66.588 414.596 72.2795 405 72.6542 402.774C73.5307 397.568 66.7747 392.711 69.6979 387.682C72.0214 391.473 71.4506 395.651 73.8481 399.311C75.7656 396.156 75.9021 384.284 79.518 383.771C83.626 383.19 76.4305 397.619 76.2268 399.691C80.0496 398.474 84.3232 390.992 87.437 394.788Z" fill="#7F886A"/>
<path fill-rule="evenodd" clip-rule="evenodd" d="M116.882 328.843C114.912 332.539 105.635 333.966 104.972 337.902C104.29 341.95 102 349.821 98.318 348.408C102.935 336.625 100.678 334.695 97.753 322.735C102.085 321.962 102.024 329.653 103.293 333.368C104.904 330.185 105.84 318.829 108.964 317.83C113.134 316.493 106.572 332.16 105.672 333.749C109.85 332.902 115.123 324.527 116.882 328.843Z" fill="#7F886A"/>
<path fill-rule="evenodd" clip-rule="evenodd" d="M126.896 254.918C125.019 259.124 117.681 262.487 116.967 266.729C116.213 271.206 118.786 276.206 114.87 279.185C111.885 273.451 116.594 268.407 112.46 262.658C111.819 261.767 104.721 249.67 109.547 252.749C112.701 254.762 111.37 260.02 115.286 262.196C115.725 259.729 113.976 245.658 117.388 246.086C121.248 246.571 117.404 259.543 117.666 262.577C120.975 259.94 124.484 251.87 126.896 254.918Z" fill="#7F886A"/>
<path fill-rule="evenodd" clip-rule="evenodd" d="M101.206 197.202C98.8561 200.322 91.917 205.218 91.2771 209.012C90.5421 213.371 92.2487 218.16 89.18 221.468C86.9519 218.155 88.5345 214.409 89.1929 210.506C90.1961 204.547 82.0584 200.876 81.4786 194.653C85.6851 195.768 86.7476 200.99 89.5966 204.479C89.416 199.352 89.7106 193.011 89.8144 188.678C95.9922 187.806 91.9508 199.544 91.4798 204.173C95.3531 202.999 99.0258 191.936 101.206 197.202Z" fill="#7F886A"/>
<path fill-rule="evenodd" clip-rule="evenodd" d="M62.3904 152.005C66.279 156.988 72.1947 159.198 74.8683 164.968C76.8105 169.158 74.3563 178.713 80.2071 176.786C78.0957 170.101 78.0042 164.478 78.8402 159.512C79.6255 154.848 84.7218 151.869 84.7049 146.442C80.3127 147.972 80.0282 154.832 76.5605 158.539C75.7299 154.781 76.2418 139.637 72.9139 140.292C67.8113 141.295 74.3217 155.613 73.9813 159.344C70.3396 156.222 65.4663 146.749 62.3904 152.005Z" fill="#7F886A"/>
<path fill-rule="evenodd" clip-rule="evenodd" d="M27.7954 81.9008C29.7338 84.4773 40.8143 91.6441 40.3734 94.2691C39.8176 97.5708 42.3022 107.533 44.719 108.365C46.5892 103.632 42.3386 98.8278 42.8539 94.0571C43.2674 90.2206 46.6983 87.5002 48.2181 83.9528C48.6391 82.9736 53.0329 73.9753 48.028 77.8316C45.4458 79.8198 44.947 86.3439 42.4619 89.1219C41.6677 85.5316 41.85 71.7189 39.3093 71.5618C33.5085 71.2059 40.2708 86.02 39.389 89.2378C34.6565 86.9259 31.4216 77.5831 27.7954 81.9008Z" fill="#7F886A"/>
<path fill-rule="evenodd" clip-rule="evenodd" d="M-0.784889 23.125C2.3497 28.1558 8.47843 30.4755 11.1972 35.3979C13.6198 39.7835 11.9639 45.4724 14.2542 49.8967C20.0168 46.7438 14.0312 41.0293 14.0716 36.4674C14.112 31.919 16.5374 30.8155 18.7446 26.8605C19.5608 25.3987 23.9899 16.2783 19.4477 19.0558C16.9952 20.5562 15.7243 27.9569 13.8815 30.3461C12.0946 26.8365 13.7849 13.619 10.2349 12.0988C6.08661 10.3224 10.568 28.6197 10.8083 30.4643C6.52844 28.3718 2.08503 19.179 -0.784889 23.125Z" fill="#7F886A"/>
<path fill-rule="evenodd" clip-rule="evenodd" d="M35.8934 167.865C39.7478 168.035 45.9982 168.163 49.6726 169.462C52.7394 170.547 62.7175 181.231 63.7373 180.242C67.0066 177.074 55.2574 170.118 53.8396 166.476C52.0651 161.916 54.3957 155.902 52.1733 150.98C48.674 153.812 52.3524 160.789 51.6612 164.907C50.6645 164.102 37.5153 146.835 37.5952 154.128C37.6431 158.435 47.5083 164.007 50.0721 167.09C45.389 167.615 34.6402 161.387 35.8934 167.865Z" fill="#7F886A"/>
<path fill-rule="evenodd" clip-rule="evenodd" d="M-27.2782 38.9894C-23.5498 41.2196 -17.0284 42.317 -12.7562 41.6201C-7.37443 40.7414 -4.00353 51.8136 0.365776 52.5529C2.21597 47.1507 -7.60323 44.066 -9.53189 38.7865C-11.4004 33.6749 -6.61838 26.6106 -12.387 23.102C-13.3374 27.4277 -10.6362 31.9697 -11.7115 37.2191C-13.4827 35.7906 -24.5756 19.3079 -25.6774 25.846C-26.3282 29.7111 -15.9486 35.3979 -13.7957 38.7129C-18.4039 39.6352 -26.9803 33.8675 -27.2782 38.9894Z" fill="#7F886A"/>
<path fill-rule="evenodd" clip-rule="evenodd" d="M1.78311 98.4618C6.40366 99.5939 12.2345 98.3237 16.4053 100.498C18.64 101.664 28.4766 113.061 29.6284 110.838C32.7017 104.909 18.8422 102.342 19.6296 97.6645C20.4253 92.9388 19.9972 85.8617 18.063 81.577C14.4717 84.2208 17.7683 91.0824 17.5509 95.5041C14.7115 93.3857 4.65273 77.7952 3.38521 85.3173C2.99647 87.6262 13.8316 95.6635 15.9617 97.6864C10.7744 98.0831 -0.580549 92.3056 1.78311 98.4618Z" fill="#7F886A"/>
</svg>
