<svg width="63" height="62" viewBox="0 0 63 62" fill="none" xmlns="http://www.w3.org/2000/svg">
<line x1="62.3521" y1="56.0492" x2="57.0478" y2="61.3536" stroke="#7F886A"/>
<line x1="62.3521" y1="48.0928" x2="49.0913" y2="61.3536" stroke="#7F886A"/>
<line x1="62.3526" y1="40.1363" x2="41.1353" y2="61.3536" stroke="#7F886A"/>
<line x1="62.3526" y1="32.1797" x2="33.1788" y2="61.3535" stroke="#7F886A"/>
<line x1="62.3526" y1="24.2232" x2="25.2223" y2="61.3534" stroke="#7F886A"/>
<line x1="62.3536" y1="16.2669" x2="17.2668" y2="61.3536" stroke="#7F886A"/>
<line x1="62.3531" y1="8.31034" x2="9.30984" y2="61.3536" stroke="#7F886A"/>
<line x1="62.3531" y1="0.353553" x2="1.35336" y2="61.3533" stroke="#7F886A"/>
<line x1="0.646447" y1="54.5651" x2="53.6897" y2="1.52193" stroke="#7F886A"/>
<line x1="0.646447" y1="46.6086" x2="45.7332" y2="1.52187" stroke="#7F886A"/>
<line x1="0.646447" y1="38.6522" x2="37.7767" y2="1.52193" stroke="#7F886A"/>
<line x1="0.646447" y1="30.6956" x2="29.8202" y2="1.52187" stroke="#7F886A"/>
<line x1="0.646447" y1="22.7391" x2="21.8637" y2="1.52181" stroke="#7F886A"/>
<line x1="0.646447" y1="14.7826" x2="13.9073" y2="1.52175" stroke="#7F886A"/>
<line x1="0.646447" y1="6.82626" x2="5.95077" y2="1.52193" stroke="#7F886A"/>
</svg>
