<svg width="52" height="44" viewBox="0 0 52 44" fill="none" xmlns="http://www.w3.org/2000/svg">
<path d="M46.8068 22.4285L45.6381 16.4823C45.3195 14.8208 44.77 13.5525 43.9579 12.6043C42.9109 11.3828 41.4427 10.7369 39.7109 10.7369H36.5625V2.60156C36.5625 1.47961 35.6532 0.570312 34.5312 0.570312H2.03125C0.909302 0.570312 0 1.47961 0 2.60156V37.4478C0 38.5694 0.909302 39.4791 2.03125 39.4791H7.96671C8.80499 41.8432 11.0628 43.5416 13.7109 43.5416C16.3591 43.5416 18.6169 41.8432 19.4552 39.4791H32.037C32.8753 41.8432 35.1331 43.5416 37.7812 43.5416C41.1415 43.5416 43.875 40.8077 43.875 37.4478C43.875 34.0875 41.1415 31.3541 37.7812 31.3541C35.1331 31.3541 32.8753 33.0521 32.037 35.4166H19.4552C18.6169 33.0521 16.3591 31.3541 13.7109 31.3541C11.0628 31.3541 8.80499 33.0521 7.96671 35.4166H4.0625V26.2759H44.3828C44.5026 26.2759 44.6193 26.2632 44.7331 26.2434C44.8506 26.2644 44.9708 26.2759 45.0938 26.2759C46.6616 26.2759 47.9375 27.5514 47.9375 29.1197V37.4478C47.9375 38.5694 48.8468 39.4791 49.9688 39.4791C51.0907 39.4791 52 38.5694 52 37.4478V29.1197C52 25.9026 49.789 23.1922 46.8068 22.4285ZM37.7812 35.4166C38.9012 35.4166 39.8125 36.3275 39.8125 37.4478C39.8125 38.5678 38.9012 39.4791 37.7812 39.4791C36.6613 39.4791 35.75 38.5678 35.75 37.4478C35.75 36.3275 36.6613 35.4166 37.7812 35.4166ZM13.7109 35.4166C14.8309 35.4166 15.7422 36.3275 15.7422 37.4478C15.7422 38.5678 14.8309 39.4791 13.7109 39.4791C12.591 39.4791 11.6797 38.5678 11.6797 37.4478C11.6797 36.3275 12.591 35.4166 13.7109 35.4166ZM39.7109 14.7994C40.331 14.7994 41.18 14.7994 41.6486 17.2504C41.6494 17.2535 41.6501 17.2571 41.6505 17.2607L42.6241 22.2134H36.5625V14.7994H39.7109ZM4.0625 4.63281H32.5V22.2134H28.4375V9.71094C28.4375 8.58899 27.5282 7.67969 26.4062 7.67969C25.2843 7.67969 24.375 8.58899 24.375 9.71094V22.2134H20.3125V9.71094C20.3125 8.58899 19.4032 7.67969 18.2812 7.67969C17.1593 7.67969 16.25 8.58899 16.25 9.71094V22.2134H12.1875V9.71094C12.1875 8.58899 11.2782 7.67969 10.1562 7.67969C9.0343 7.67969 8.125 8.58899 8.125 9.71094V22.2134H4.0625V4.63281Z" fill="#3E503C"/>
</svg>
