<svg width="38" height="38" viewBox="0 0 38 38" fill="none" xmlns="http://www.w3.org/2000/svg">
<path fill-rule="evenodd" clip-rule="evenodd" d="M3 0C1.34315 0 0 1.34315 0 3V35C0 36.6569 1.34315 38 3 38H35C36.6569 38 38 36.6569 38 35V3C38 1.34315 36.6569 0 35 0H3ZM25.1388 10.4577H22.1686C21.5803 10.4577 20.9866 11.0657 20.9866 11.518V14.5467H25.1329C24.966 16.869 24.6232 18.9927 24.6232 18.9927H20.9654V32.1538H15.5146V18.9912H12.8612V14.5624H15.5146V10.9415C15.5146 10.2794 15.3805 5.84624 21.0995 5.84624H25.1389L25.1388 10.4577Z" fill="#F3ECDB"/>
</svg>
