<svg width="26" height="26" viewBox="0 0 26 26" fill="none" xmlns="http://www.w3.org/2000/svg">
<path d="M25.6879 11.05L23.4599 8.90374V2.64118C23.4599 2.08041 23.0053 1.62556 22.4445 1.62556H18.382C17.8212 1.62556 17.3664 2.08041 17.3664 2.64118V3.01113L15.1108 0.809287C15.1008 0.799369 15.0905 0.789848 15.08 0.780326C13.9243 -0.257119 12.1783 -0.260888 11.0185 0.771796C11.009 0.780326 10.9997 0.788856 10.9905 0.797782L0.311999 11.0489C0.0130639 11.3359 -0.0815558 11.7761 0.0731682 12.1605C0.227892 12.5451 0.600817 12.797 1.0154 12.797H2.53884V21.9375C2.53884 24.1774 4.36121 25.9998 6.60114 25.9998H19.3976C21.6375 25.9998 23.4599 24.1774 23.4599 21.9375C23.4599 21.3765 23.0053 20.9218 22.4445 20.9218C21.8835 20.9218 21.4289 21.3765 21.4289 21.9375C21.4289 23.0574 20.5176 23.9685 19.3976 23.9685H6.60114C5.48117 23.9685 4.57009 23.0574 4.57009 21.9375V12.797H21.4289V16.8595C21.4289 17.4203 21.8835 17.875 22.4445 17.875C23.0053 17.875 23.4599 17.4203 23.4599 16.8595V12.797H24.9834C25.3975 12.797 25.7703 12.5455 25.9252 12.1613C26.0801 11.7772 25.9863 11.3375 25.6879 11.05ZM12.3811 2.27837C12.7631 1.94849 13.3287 1.94948 13.7097 2.28016L17.6726 6.14846C17.9648 6.43391 18.3998 6.51623 18.7763 6.35773C19.1528 6.19904 19.3976 5.83028 19.3976 5.42185V3.65681H21.4289V9.33538C21.4289 9.6113 21.5411 9.87533 21.7397 10.0667L22.4653 10.766H3.53978L12.3811 2.27837ZM8.93708 15.3361C8.3761 15.3361 7.92145 15.7907 7.92145 16.3517V20.414C7.92145 20.975 8.3761 21.4296 8.93708 21.4296H17.0617C17.6227 21.4296 18.0773 20.975 18.0773 20.414V16.3517C18.0773 15.7907 17.6227 15.3361 17.0617 15.3361H8.93708ZM9.9527 17.3671H11.9838V19.3984H9.9527V17.3671ZM16.0463 19.3984H14.015V17.3671H16.0463V19.3984Z" fill="#F3ECDB"/>
</svg>
