<svg width="26" height="22" viewBox="0 0 26 22" fill="none" xmlns="http://www.w3.org/2000/svg">
<path d="M21.8868 0.945312H4.01173C1.77159 0.945312 -0.0507812 2.76769 -0.0507812 5.00782V16.9922C-0.0507812 19.2324 1.77159 21.0547 4.01173 21.0547H21.8868C23.1329 21.0547 24.2927 20.4947 25.0687 19.518C25.3488 19.1653 25.4052 18.5611 24.9584 18.1358L24.9079 18.088C24.8672 18.0499 24.8077 17.9942 24.7317 17.9233C24.5817 17.7835 24.3673 17.5837 24.1096 17.3445C23.5955 16.8667 22.9097 16.2299 22.2236 15.5934C20.8519 14.3204 19.4796 13.0481 19.4796 13.0481C19.0682 12.6669 18.4257 12.6911 18.0442 13.1025C17.663 13.5139 17.6872 14.1564 18.0986 14.5379C19.5857 15.9165 21.6126 17.7966 22.7344 18.8394C22.4725 18.9594 22.1845 19.0235 21.8868 19.0235H4.01173C3.71021 19.0235 3.42397 18.9568 3.1663 18.8384L7.80029 14.5375C8.2115 14.1558 8.23531 13.5133 7.85385 13.1021C7.4722 12.6909 6.8295 12.6671 6.41849 13.0485L1.98801 17.1608C1.98345 17.1051 1.98047 17.049 1.98047 16.9922V5.00782C1.98047 4.94811 1.98365 4.8892 1.98861 4.83088L9.66849 11.8996C9.85595 12.0722 10.1013 12.168 10.3562 12.168H15.5427C15.7976 12.168 16.0429 12.0722 16.2304 11.8998L23.9099 4.83266C23.9148 4.89059 23.918 4.94871 23.918 5.00782V12.9297C23.918 13.4907 24.3727 13.9453 24.9336 13.9453C25.4946 13.9453 25.9493 13.4907 25.9493 12.9297V5.00782C25.9493 2.76769 24.1269 0.945312 21.8868 0.945312ZM15.1465 10.1367H10.7526L3.17165 3.15906C3.42794 3.04223 3.7122 2.97657 4.01173 2.97657H21.8868C22.1869 2.97657 22.4715 3.04242 22.7282 3.15986L15.1465 10.1367Z" fill="#F3ECDB"/>
</svg>
