<svg width="18" height="26" viewBox="0 0 18 26" fill="none" xmlns="http://www.w3.org/2000/svg">
<path d="M9 23.0039C8.43903 23.0039 7.98438 22.5493 7.98438 21.9883C7.98438 21.4273 8.43903 20.9727 9 20.9727C9.56097 20.9727 10.0156 21.4273 10.0156 21.9883C10.0156 22.5493 9.56097 23.0039 9 23.0039ZM16.5664 14.8281C17.1274 14.8281 17.582 14.3735 17.582 13.8125V4.0625C17.582 1.82237 15.7597 0 13.5195 0H4.48047C2.24034 0 0.417969 1.82237 0.417969 4.0625V21.9375C0.417969 24.1776 2.24034 26 4.48047 26H13.5195C15.7597 26 17.582 24.1776 17.582 21.9375V18.8906C17.582 18.3297 17.1274 17.875 16.5664 17.875H5.49609C4.93512 17.875 4.48047 18.3297 4.48047 18.8906C4.48047 19.4516 4.93512 19.9062 5.49609 19.9062H15.5508V21.9375C15.5508 23.0575 14.6395 23.9688 13.5195 23.9688H4.48047C3.3605 23.9688 2.44922 23.0575 2.44922 21.9375V4.0625C2.44922 2.94254 3.3605 2.03125 4.48047 2.03125H13.5195C14.6395 2.03125 15.5508 2.94254 15.5508 4.0625V13.8125C15.5508 14.3735 16.0054 14.8281 16.5664 14.8281Z" fill="#F3ECDB"/>
</svg>
