<svg width="26" height="26" viewBox="0 0 26 26" fill="none" xmlns="http://www.w3.org/2000/svg">
<path d="M24.9844 17.875C25.5453 17.875 26 17.4203 26 16.8594V6.09375C26 3.85362 24.1776 2.03125 21.9375 2.03125H20.6172V1.01562C20.6172 0.454651 20.1625 0 19.6016 0C19.0406 0 18.5859 0.454651 18.5859 1.01562V2.03125H13.9648V1.01562C13.9648 0.454651 13.5102 0 12.9492 0C12.3882 0 11.9336 0.454651 11.9336 1.01562V2.03125H7.36328V1.01562C7.36328 0.454651 6.90863 0 6.34766 0C5.78668 0 5.33203 0.454651 5.33203 1.01562V2.03125H4.0625C1.82237 2.03125 0 3.85362 0 6.09375V21.9375C0 24.1776 1.82237 26 4.0625 26H21.9375C24.1776 26 26 24.1776 26 21.9375C26 21.3765 25.5453 20.9219 24.9844 20.9219C24.4234 20.9219 23.9688 21.3765 23.9688 21.9375C23.9688 23.0575 23.0575 23.9688 21.9375 23.9688H4.0625C2.94254 23.9688 2.03125 23.0575 2.03125 21.9375V10.1562H23.9688V16.8594C23.9688 17.4203 24.4234 17.875 24.9844 17.875ZM2.03125 8.125V6.09375C2.03125 4.97379 2.94254 4.0625 4.0625 4.0625H5.33203V5.07812C5.33203 5.6391 5.78668 6.09375 6.34766 6.09375C6.90863 6.09375 7.36328 5.6391 7.36328 5.07812V4.0625H11.9336V5.07812C11.9336 5.6391 12.3882 6.09375 12.9492 6.09375C13.5102 6.09375 13.9648 5.6391 13.9648 5.07812V4.0625H18.5859V5.07812C18.5859 5.6391 19.0406 6.09375 19.6016 6.09375C20.1625 6.09375 20.6172 5.6391 20.6172 5.07812V4.0625H21.9375C23.0575 4.0625 23.9688 4.97379 23.9688 6.09375V8.125H2.03125ZM18.0273 17.1133C18.0273 17.6743 17.5727 18.1289 17.0117 18.1289C16.4507 18.1289 15.9961 17.6743 15.9961 17.1133C15.9961 16.5523 16.4507 16.0977 17.0117 16.0977C17.5727 16.0977 18.0273 16.5523 18.0273 17.1133ZM14.0156 17.1133C14.0156 17.6743 13.561 18.1289 13 18.1289C12.439 18.1289 11.9844 17.6743 11.9844 17.1133C11.9844 16.5523 12.439 16.0977 13 16.0977C13.561 16.0977 14.0156 16.5523 14.0156 17.1133ZM18.0273 13.0508C18.0273 13.6118 17.5727 14.0664 17.0117 14.0664C16.4507 14.0664 15.9961 13.6118 15.9961 13.0508C15.9961 12.4898 16.4507 12.0352 17.0117 12.0352C17.5727 12.0352 18.0273 12.4898 18.0273 13.0508ZM5.89062 13.0508C5.89062 13.6118 5.43597 14.0664 4.875 14.0664C4.31403 14.0664 3.85938 13.6118 3.85938 13.0508C3.85938 12.4898 4.31403 12.0352 4.875 12.0352C5.43597 12.0352 5.89062 12.4898 5.89062 13.0508ZM22.0391 13.0508C22.0391 13.6118 21.5844 14.0664 21.0234 14.0664C20.4625 14.0664 20.0078 13.6118 20.0078 13.0508C20.0078 12.4898 20.4625 12.0352 21.0234 12.0352C21.5844 12.0352 22.0391 12.4898 22.0391 13.0508ZM22.0391 17.1133C22.0391 17.6743 21.5844 18.1289 21.0234 18.1289C20.4625 18.1289 20.0078 17.6743 20.0078 17.1133C20.0078 16.5523 20.4625 16.0977 21.0234 16.0977C21.5844 16.0977 22.0391 16.5523 22.0391 17.1133ZM18.0273 21.1758C18.0273 21.7368 17.5727 22.1914 17.0117 22.1914C16.4507 22.1914 15.9961 21.7368 15.9961 21.1758C15.9961 20.6148 16.4507 20.1602 17.0117 20.1602C17.5727 20.1602 18.0273 20.6148 18.0273 21.1758ZM5.89062 17.1133C5.89062 17.6743 5.43597 18.1289 4.875 18.1289C4.31403 18.1289 3.85938 17.6743 3.85938 17.1133C3.85938 16.5523 4.31403 16.0977 4.875 16.0977C5.43597 16.0977 5.89062 16.5523 5.89062 17.1133ZM9.95312 13.0508C9.95312 13.6118 9.49847 14.0664 8.9375 14.0664C8.37653 14.0664 7.92188 13.6118 7.92188 13.0508C7.92188 12.4898 8.37653 12.0352 8.9375 12.0352C9.49847 12.0352 9.95312 12.4898 9.95312 13.0508ZM5.89062 21.1758C5.89062 21.7368 5.43597 22.1914 4.875 22.1914C4.31403 22.1914 3.85938 21.7368 3.85938 21.1758C3.85938 20.6148 4.31403 20.1602 4.875 20.1602C5.43597 20.1602 5.89062 20.6148 5.89062 21.1758ZM9.95312 17.1133C9.95312 17.6743 9.49847 18.1289 8.9375 18.1289C8.37653 18.1289 7.92188 17.6743 7.92188 17.1133C7.92188 16.5523 8.37653 16.0977 8.9375 16.0977C9.49847 16.0977 9.95312 16.5523 9.95312 17.1133ZM9.95312 21.1758C9.95312 21.7368 9.49847 22.1914 8.9375 22.1914C8.37653 22.1914 7.92188 21.7368 7.92188 21.1758C7.92188 20.6148 8.37653 20.1602 8.9375 20.1602C9.49847 20.1602 9.95312 20.6148 9.95312 21.1758ZM14.0156 13.0508C14.0156 13.6118 13.561 14.0664 13 14.0664C12.439 14.0664 11.9844 13.6118 11.9844 13.0508C11.9844 12.4898 12.439 12.0352 13 12.0352C13.561 12.0352 14.0156 12.4898 14.0156 13.0508ZM14.0156 21.1758C14.0156 21.7368 13.561 22.1914 13 22.1914C12.439 22.1914 11.9844 21.7368 11.9844 21.1758C11.9844 20.6148 12.439 20.1602 13 20.1602C13.561 20.1602 14.0156 20.6148 14.0156 21.1758Z" fill="#F3ECDB"/>
</svg>
