<svg width="38" height="38" viewBox="0 0 38 38" fill="none" xmlns="http://www.w3.org/2000/svg">
<path fill-rule="evenodd" clip-rule="evenodd" d="M25.5169 8.71069H12.4834C10.4034 8.71069 8.71069 10.4033 8.71069 12.4834V25.5168C8.71069 27.5973 10.4034 29.29 12.4834 29.29H25.5169C27.5973 29.29 29.29 27.5973 29.29 25.5168V12.4834C29.29 10.4034 27.5973 8.71069 25.5169 8.71069ZM18.9999 25.7748C15.2648 25.7748 12.2255 22.7355 12.2255 18.9999C12.2255 15.2648 15.2648 12.2255 18.9999 12.2255C22.7355 12.2255 25.7748 15.2648 25.7748 18.9999C25.7748 22.7355 22.7355 25.7748 18.9999 25.7748ZM25.9928 13.6264C25.1084 13.6264 24.3894 12.9073 24.3894 12.0235C24.3894 11.1396 25.1084 10.4205 25.9928 10.4205C26.8766 10.4205 27.5957 11.1396 27.5957 12.0235C27.5957 12.9074 26.8766 13.6264 25.9928 13.6264Z" fill="#F3ECDB"/>
<path fill-rule="evenodd" clip-rule="evenodd" d="M18.9999 15.0884C16.8436 15.0884 15.0876 16.8435 15.0876 18.9998C15.0876 21.1569 16.8436 22.9124 18.9999 22.9124C21.157 22.9124 22.9117 21.1569 22.9117 18.9998C22.9117 16.8435 21.157 15.0884 18.9999 15.0884Z" fill="#F3ECDB"/>
<path fill-rule="evenodd" clip-rule="evenodd" d="M3 0C1.34315 0 0 1.34315 0 3V35C0 36.6569 1.34315 38 3 38H35C36.6569 38 38 36.6569 38 35V3C38 1.34315 36.6569 0 35 0H3ZM32.1522 25.5167C32.1522 29.1761 29.1761 32.1522 25.5168 32.1522H12.4833C8.82435 32.1522 5.84782 29.1761 5.84782 25.5167V12.4833C5.84782 8.82435 8.82435 5.84782 12.4833 5.84782H25.5168C29.1761 5.84782 32.1522 8.82435 32.1522 12.4833V25.5167Z" fill="#F3ECDB"/>
</svg>
