<svg width="52" height="52" viewBox="0 0 52 52" fill="none" xmlns="http://www.w3.org/2000/svg">
<path d="M52 12.1875V24.7812C52 25.9032 51.0907 26.8125 49.9688 26.8125C48.8468 26.8125 47.9375 25.9032 47.9375 24.7812V12.1875C47.9375 9.94757 46.1149 8.125 43.875 8.125H41.2344V10.1562C41.2344 11.2782 40.3251 12.1875 39.2031 12.1875C38.0812 12.1875 37.1719 11.2782 37.1719 10.1562V8.125H27.9297V10.1562C27.9297 11.2782 27.0204 12.1875 25.8984 12.1875C24.7765 12.1875 23.8672 11.2782 23.8672 10.1562V8.125H14.7266V10.1562C14.7266 11.2782 13.8173 12.1875 12.6953 12.1875C11.5734 12.1875 10.6641 11.2782 10.6641 10.1562V8.125H8.125C5.88507 8.125 4.0625 9.94757 4.0625 12.1875V43.875C4.0625 46.1149 5.88507 47.9375 8.125 47.9375H23.6641C24.786 47.9375 25.6953 48.8468 25.6953 49.9687C25.6953 51.0907 24.786 52 23.6641 52H8.125C3.64474 52 0 48.3552 0 43.875V12.1875C0 7.70724 3.64474 4.0625 8.125 4.0625H10.6641V2.03125C10.6641 0.909302 11.5734 0 12.6953 0C13.8173 0 14.7266 0.909302 14.7266 2.03125V4.0625H23.8672V2.03125C23.8672 0.909302 24.7765 0 25.8984 0C27.0204 0 27.9297 0.909302 27.9297 2.03125V4.0625H37.1719V2.03125C37.1719 0.909302 38.0812 0 39.2031 0C40.3251 0 41.2344 0.909302 41.2344 2.03125V4.0625H43.875C48.3553 4.0625 52 7.70724 52 12.1875ZM20.0078 28.0312V32.0937H22.2422C23.3641 32.0937 24.2734 33.003 24.2734 34.125C24.2734 35.2469 23.3641 36.1562 22.2422 36.1562H20.0078V40.2187H21.5312C22.6532 40.2187 23.5625 41.128 23.5625 42.25C23.5625 43.3719 22.6532 44.2812 21.5312 44.2812H11.8828C9.64288 44.2812 7.82031 42.4587 7.82031 40.2187V19.9062C7.82031 17.6663 9.64288 15.8437 11.8828 15.8437H40.2188C42.4587 15.8437 44.2812 17.6663 44.2812 19.9062V21.5312C44.2812 22.6532 43.3719 23.5625 42.25 23.5625C41.1281 23.5625 40.2188 22.6532 40.2188 21.5312V19.9062H36.2578V22.2422C36.2578 23.3641 35.3485 24.2734 34.2266 24.2734C33.1046 24.2734 32.1953 23.3641 32.1953 22.2422V19.9062H28.1328V26C28.1328 27.1219 27.2235 28.0312 26.1016 28.0312H20.0078ZM24.0703 19.9062H20.0078V23.9687H24.0703V19.9062ZM11.8828 19.9062V23.9687H15.9453V19.9062H11.8828ZM15.9453 36.1562H11.8828V40.2187H15.9453V36.1562ZM15.9453 28.0312H11.8828V32.0937H15.9453V28.0312ZM52 39.7109C52 46.487 46.4871 52 39.7109 52C32.9348 52 27.4219 46.487 27.4219 39.7109C27.4219 32.9348 32.9348 27.4219 39.7109 27.4219C46.4871 27.4219 52 32.9348 52 39.7109ZM47.9375 39.7109C47.9375 35.1747 44.2471 31.4844 39.7109 31.4844C35.1747 31.4844 31.4844 35.1747 31.4844 39.7109C31.4844 44.2471 35.1747 47.9375 39.7109 47.9375C44.2471 47.9375 47.9375 44.2471 47.9375 39.7109ZM42.6562 37.6797H41.7422V35.5469C41.7422 34.4249 40.8329 33.5156 39.7109 33.5156C38.589 33.5156 37.6797 34.4249 37.6797 35.5469V39.7109C37.6797 40.8329 38.589 41.7422 39.7109 41.7422H42.6562C43.7782 41.7422 44.6875 40.8329 44.6875 39.7109C44.6875 38.589 43.7782 37.6797 42.6562 37.6797Z" fill="#3E503C"/>
</svg>
