<svg width="52" height="52" viewBox="0 0 52 52" fill="none" xmlns="http://www.w3.org/2000/svg">
<path d="M25.8991 52C25.5877 52 25.2767 51.9286 24.9906 51.7858C24.753 51.6667 19.1044 48.8027 13.1943 42.3785C9.73007 38.6136 6.88473 34.3916 4.73685 29.8304C2.05417 24.1334 0.462095 17.896 0.00387351 11.2917C-0.0334189 10.7529 0.145506 10.2217 0.500578 9.81506C0.856046 9.40841 1.3583 9.15967 1.89746 9.12436C5.61758 8.87997 8.53195 5.76446 8.53195 2.03125C8.53195 0.909302 9.44125 0 10.5632 0H41.4382C42.5598 0 43.4695 0.909302 43.4695 2.03125C43.4695 5.76208 46.3818 8.87759 50.1 9.12436C50.6475 9.16046 51.1569 9.41675 51.5123 9.8345C51.8682 10.2523 52.0396 10.7962 51.988 11.3425C51.2933 18.6756 49.2684 25.5342 45.9692 31.7284C45.4416 32.7186 44.2113 33.0935 43.2215 32.5662C42.2313 32.039 41.8564 30.8087 42.3836 29.8185C45.1472 24.6301 46.9432 18.9251 47.7331 12.8358C43.5738 11.7392 40.3785 8.29956 39.593 4.0625H12.4084C11.6197 8.31781 8.40103 11.7682 4.21594 12.8492C5.28354 23.0967 9.26669 32.0564 16.0706 39.5046C20.1434 43.9627 24.1365 46.593 25.8876 47.634C27.8038 46.4684 32.438 43.3362 36.9496 37.9054C37.6665 37.0421 38.9471 36.9239 39.81 37.6408C40.6729 38.3577 40.7915 39.6383 40.0746 40.5012C33.654 48.2303 27.1004 51.6358 26.8243 51.777C26.5339 51.9258 26.2165 52 25.8991 52ZM24.4713 32.2854C25.9253 32.1886 27.2825 31.4816 28.195 30.3458C28.2188 30.3164 28.2414 30.2862 28.2636 30.2557L38.3163 16.2135C38.9694 15.3014 38.7591 14.0327 37.847 13.3797C36.9349 12.7267 35.6658 12.9369 35.0132 13.8486L25.0009 27.8341C24.7276 28.1511 24.3848 28.2193 24.2011 28.2316C24.0127 28.2439 23.6505 28.2205 23.3311 27.921L16.8609 21.6066C16.0579 20.8227 14.7721 20.839 13.9886 21.6415C13.205 22.4445 13.2205 23.7303 14.0235 24.5138L20.5052 30.8393C20.5112 30.8452 20.5171 30.8512 20.5235 30.8567C21.4951 31.7819 22.7924 32.2965 24.127 32.2965C24.2412 32.2969 24.3563 32.2929 24.4713 32.2854Z" fill="#3E503C"/>
</svg>
