<svg width="38" height="38" viewBox="0 0 38 38" fill="none" xmlns="http://www.w3.org/2000/svg">
<path fill-rule="evenodd" clip-rule="evenodd" d="M3 0C1.34315 0 0 1.34315 0 3V35C0 36.6569 1.34315 38 3 38H35C36.6569 38 38 36.6569 38 35V3C38 1.34315 36.6569 0 35 0H3ZM32.1383 8.40844L27.6737 29.8835C27.5685 30.3906 26.974 30.6203 26.5545 30.3155L20.4599 25.8907C20.0899 25.622 19.5854 25.6363 19.2312 25.9251L15.8521 28.6796C15.46 29.0003 14.869 28.8215 14.7189 28.3386L12.3726 20.7928L6.31067 18.5304C5.69491 18.2997 5.68964 17.4304 6.30366 17.1939L31.1817 7.59658C31.7091 7.39263 32.2532 7.85464 32.1383 8.40844Z" fill="#F3ECDB"/>
<path fill-rule="evenodd" clip-rule="evenodd" d="M26.1879 12.2918L14.3407 19.5884C13.8867 19.8686 13.6729 20.417 13.8194 20.9304L15.1003 25.4311C15.1914 25.75 15.6541 25.7174 15.6985 25.388L16.0314 22.9198C16.0942 22.4551 16.3158 22.0268 16.6596 21.707L26.4368 12.6185C26.6198 12.449 26.4007 12.1611 26.1879 12.2918Z" fill="#F3ECDB"/>
</svg>
