<svg width="30" height="30" viewBox="0 0 30 30" fill="none" xmlns="http://www.w3.org/2000/svg">
<path d="M10.5398 0.781403C10.3757 0.317001 9.93873 0.00480652 9.44618 0C9.44229 0 9.43863 0 9.43496 0C8.94676 0 8.50937 0.302582 8.3377 0.760117L0.251309 22.3114C-0.180133 23.3929 -0.0496704 24.6135 0.601727 25.5796C1.25633 26.5501 2.34604 27.1296 3.51677 27.1296H8.32145V28.7702C8.32145 29.4175 8.84628 29.9421 9.49356 29.9421C10.1406 29.9421 10.6654 29.4175 10.6654 28.7702V27.1296H14.8821C16.0382 27.1296 17.1204 26.5613 17.7766 25.6094C18.43 24.6616 18.5779 23.4547 18.1732 22.3778L10.5398 0.781403ZM15.8471 24.2791C15.6251 24.6011 15.2733 24.7858 14.8821 24.7858H3.51677C3.1208 24.7858 2.76649 24.5975 2.54516 24.2693C2.32383 23.9408 2.28195 23.5419 2.43026 23.1747C2.43393 23.1656 2.43759 23.1564 2.44102 23.1473L9.40201 4.59549L15.9677 23.1709C15.9709 23.1796 15.9739 23.1885 15.9773 23.1972C16.1165 23.5627 16.0691 23.9571 15.8471 24.2791ZM29.4147 25.5553C28.7617 26.5411 27.6661 27.1296 26.4837 27.1296H23.2047V28.7702C23.2047 29.4175 22.6801 29.9423 22.0328 29.9423C21.3856 29.9423 20.861 29.4175 20.861 28.7702V25.9577C20.861 25.3104 21.3856 24.7858 22.0328 24.7858H26.4837C26.8838 24.7858 27.2399 24.5945 27.4608 24.261C27.6817 23.9278 27.7187 23.5252 27.5626 23.1569C27.5585 23.1466 27.5542 23.1363 27.5503 23.126L22.023 8.97148L19.9995 14.6331C19.7816 15.2424 19.1107 15.5598 18.5017 15.3422C17.8921 15.1245 17.5747 14.4539 17.7924 13.8444L20.8708 5.23087C21.0354 4.77036 21.4684 4.46045 21.9573 4.45335C22.4441 4.44626 22.8882 4.74335 23.066 5.19905L29.7279 22.2594C30.181 23.3441 30.0643 24.5748 29.4147 25.5553Z" fill="#F3ECDB"/>
</svg>
