<svg width="38" height="38" viewBox="0 0 38 38" fill="none" xmlns="http://www.w3.org/2000/svg">
<path d="M19.017 7.948C12.9403 7.948 7.99658 12.8917 7.99658 18.9684C7.99658 21.0857 8.59835 23.1419 9.73669 24.9145L10.0103 25.3405L8.93839 29.1476L12.8772 28.1337L13.2835 28.3817C15.0056 29.4331 16.9883 29.9888 19.017 29.9888C25.0937 29.9888 30.0373 25.0451 30.0373 18.9684C30.0373 12.8917 25.0937 7.948 19.017 7.948ZM25.7748 22.3555L25.6373 22.9977C25.4822 23.7223 25.0519 24.3633 24.4276 24.7626C23.6394 25.2668 22.6177 25.5144 21.3191 25.1471C17.289 24.0076 15.0098 21.3393 13.7869 19.6717C12.5639 18.004 12.0915 16.3364 12.3972 14.9745C12.6022 14.0611 13.2698 13.3603 13.6873 12.9976C13.8918 12.82 14.1571 12.7297 14.4275 12.7444L15.2887 12.7914C15.4583 12.8006 15.6079 12.9053 15.6747 13.0615L16.9292 15.9967C16.9962 16.1535 16.968 16.3348 16.8565 16.4638L15.7645 17.727C15.6759 17.8294 15.6605 17.9753 15.7229 18.0955C17.1611 20.8658 19.7821 21.9635 20.5646 22.2385C20.6979 22.2854 20.8457 22.2411 20.932 22.1291L22.0746 20.6479C22.2017 20.4831 22.4258 20.4281 22.6147 20.5152L25.5252 21.8568C25.7149 21.9443 25.8185 22.1514 25.7748 22.3555Z" fill="#F3ECDB"/>
<path d="M3 0C1.34315 0 0 1.34315 0 3V35C0 36.6569 1.34315 38 3 38H35C36.6569 38 38 36.6569 38 35V3C38 1.34315 36.6569 0 35 0H3ZM19.0171 32.2403C16.7369 32.2403 14.5041 31.6566 12.5288 30.5483L5.7112 32.3032L7.57255 25.6923C6.37559 23.6589 5.74539 21.3453 5.74539 18.9685C5.74539 11.6505 11.6991 5.69678 19.0171 5.69678C26.3352 5.69678 32.2888 11.6505 32.2888 18.9685C32.2888 26.2866 26.3352 32.2403 19.0171 32.2403Z" fill="#F3ECDB"/>
</svg>
