<svg width="38" height="38" viewBox="0 0 38 38" fill="none" xmlns="http://www.w3.org/2000/svg">
<path fill-rule="evenodd" clip-rule="evenodd" d="M3 0C1.34315 0 0 1.34315 0 3V35C0 36.6569 1.34315 38 3 38H35C36.6569 38 38 36.6569 38 35V3C38 1.34315 36.6569 0 35 0H3ZM28.4873 21.0234C29.3596 21.8744 30.2821 22.6756 31.065 23.6165C31.411 24.0322 31.7382 24.4611 31.9876 24.9428C32.3416 25.633 32.0207 26.3891 31.4042 26.4308L27.5729 26.4291C26.584 26.5104 25.7959 26.1117 25.1313 25.4351C24.6028 24.8964 24.1088 24.3198 23.5986 23.7629C23.391 23.5335 23.1714 23.3191 22.9105 23.148C22.3871 22.8089 21.9331 22.9118 21.6339 23.4569C21.3297 24.0122 21.2582 24.6288 21.2301 25.2471C21.1885 26.1497 20.9161 26.3858 20.0102 26.4292C18.072 26.519 16.2338 26.2245 14.5266 25.2488C13.019 24.388 11.8522 23.171 10.8365 21.7949C8.85701 19.112 7.34093 16.1666 5.9797 13.1365C5.67202 12.4536 5.89677 12.0876 6.64775 12.0744C7.89966 12.0497 9.15107 12.0527 10.4012 12.0727C10.9098 12.0812 11.2472 12.3719 11.4417 12.8523C12.1182 14.5147 12.9458 16.0969 13.9846 17.5649C14.2624 17.9555 14.545 18.3444 14.9454 18.6202C15.3892 18.9261 15.7283 18.8261 15.9376 18.3291C16.0708 18.0134 16.1291 17.6777 16.1572 17.3402C16.2567 16.1849 16.2687 15.0284 16.0972 13.8765C15.9908 13.1565 15.5837 12.691 14.8658 12.5549C14.4998 12.485 14.5547 12.3506 14.7309 12.1408C15.0402 11.7804 15.3313 11.5557 15.9079 11.5557H19.9481C20.1409 11.5557 20.3365 11.5649 20.5178 11.6305C20.9667 11.7927 21.0884 12.1023 21.1668 12.6829L21.1703 17.495C21.1622 17.761 21.3035 18.5486 21.7804 18.7231C22.1625 18.8494 22.417 18.5417 22.6463 18.2992C23.6834 17.1988 24.4233 15.8976 25.0845 14.5512C25.3772 13.9594 25.63 13.3445 25.876 12.7292C26.0572 12.2738 26.3398 12.0496 26.8534 12.0577L31.0222 12.0628C31.1451 12.0628 31.2716 12.0628 31.3928 12.0827C32.094 12.204 32.2869 12.5066 32.069 13.1929C31.7286 14.2682 31.0618 15.166 30.412 16.0651C29.7154 17.0277 28.9742 17.9565 28.2828 18.9242C27.6512 19.8102 27.701 20.2557 28.4873 21.0234Z" fill="#F3ECDB"/>
</svg>
