<svg width="38" height="38" viewBox="0 0 38 38" fill="none" xmlns="http://www.w3.org/2000/svg">
<path d="M24.6877 8.78698C20.9138 8.06905 17.0865 8.06905 13.3118 8.78698C11.6608 9.15469 9.58376 11.145 9.17769 12.746C8.50229 15.8436 8.50229 18.9838 9.17769 22.0815C9.58376 23.6824 11.6608 25.6728 13.3118 26.0405C13.3122 26.0406 13.3126 26.0407 13.313 26.0407C13.3866 26.0552 13.4402 26.1189 13.4402 26.1938V30.7317C13.4402 30.9585 13.717 31.0702 13.8746 30.9059L16.0301 28.6938C16.0301 28.6938 17.7477 26.9306 18.0565 26.6136C18.0867 26.5826 18.1284 26.5658 18.1716 26.567C20.3478 26.6273 22.5263 26.4515 24.6877 26.0406C26.3386 25.6729 28.4165 23.6825 28.8218 22.0816C29.498 18.9839 29.498 15.8437 28.8218 12.7461C28.4165 11.145 26.3395 9.15469 24.6877 8.78698ZM24.7452 22.3125C24.415 23.0136 23.9346 23.5969 23.2415 23.9692C23.046 24.0742 22.8122 24.1082 22.5915 24.1761C22.3377 24.0991 22.0958 24.0473 21.8712 23.9541C19.5435 22.9884 17.4012 21.7425 15.7043 19.8326C14.7393 18.7465 13.9839 17.5204 13.3456 16.2228C13.0428 15.6074 12.7877 14.968 12.5276 14.3327C12.2904 13.7533 12.6397 13.1548 13.0075 12.7183C13.3527 12.3086 13.7967 11.9951 14.2777 11.7641C14.6531 11.5837 15.0234 11.6877 15.2976 12.0059C15.8902 12.6938 16.4346 13.4169 16.8755 14.2143C17.1466 14.7047 17.0722 15.3042 16.5809 15.638C16.4615 15.7192 16.3527 15.8144 16.2414 15.906C16.1439 15.9863 16.0521 16.0674 15.9852 16.1762C15.863 16.375 15.8571 16.6098 15.9358 16.8261C16.5417 18.491 17.5629 19.7857 19.2387 20.483C19.507 20.5946 19.7762 20.7245 20.0851 20.6885C20.6025 20.628 20.77 20.0605 21.1326 19.764C21.487 19.4743 21.9398 19.4704 22.3215 19.712C22.7033 19.9536 23.0735 20.2131 23.4414 20.4752C23.8025 20.7325 24.162 20.9843 24.4951 21.2776C24.8152 21.5596 24.9256 21.9296 24.7452 22.3125ZM21.7398 16.8869C21.5953 16.8895 21.6521 16.8867 21.707 16.8851C21.4741 16.8769 21.3475 16.7398 21.3224 16.517C21.3042 16.3541 21.2898 16.1891 21.2509 16.0307C21.1744 15.7186 21.0085 15.4295 20.7461 15.2383C20.6222 15.148 20.4818 15.0821 20.3347 15.0397C20.1478 14.9858 19.9538 15.0006 19.7674 14.9549C19.5649 14.9054 19.4529 14.7414 19.4847 14.5515C19.5136 14.3786 19.6818 14.2437 19.8707 14.2574C21.0511 14.3426 21.8948 14.9529 22.0152 16.3426C22.0237 16.4407 22.0337 16.5442 22.0119 16.638C21.9766 16.7905 21.8676 16.8699 21.7574 16.8843C21.7664 16.8845 21.7647 16.8853 21.7398 16.8869ZM21.0058 13.7085C20.6435 13.5311 20.2518 13.4209 19.8547 13.3552C19.6812 13.3265 19.5059 13.3091 19.3315 13.2848C19.1202 13.2554 19.0075 13.1208 19.0174 12.9126C19.0268 12.7175 19.1693 12.5771 19.382 12.5891C20.0807 12.6288 20.7556 12.7798 21.3768 13.1088C22.64 13.7778 23.3616 14.8337 23.5723 16.2437C23.5819 16.3076 23.5971 16.3709 23.6019 16.435C23.614 16.5932 23.6214 16.7518 23.6336 16.9605C23.6285 16.9985 23.6259 17.0879 23.6037 17.1721C23.5229 17.4778 23.0595 17.516 22.9527 17.2075C22.9211 17.116 22.9164 17.0118 22.9162 16.9133C22.9151 16.2684 22.775 15.6242 22.4498 15.0631C22.1155 14.4866 21.6047 14.0018 21.0058 13.7085ZM24.9091 18.0661C24.665 18.069 24.5552 17.8648 24.5393 17.646C24.508 17.2127 24.4863 16.7775 24.4265 16.3479C24.1113 14.0798 22.3028 12.2033 20.0453 11.8007C19.7056 11.7401 19.3578 11.7241 19.0137 11.688C18.7962 11.6652 18.5113 11.652 18.4631 11.3816C18.4226 11.1549 18.614 10.9744 18.8299 10.9628C18.8886 10.9596 18.9476 10.9623 19.0066 10.9625C21.9304 11.0445 19.185 10.9688 19.0144 10.9629C22.0555 11.0516 24.5524 13.0711 25.0879 16.0785C25.1792 16.5914 25.2117 17.1158 25.2523 17.6364C25.2694 17.8552 25.1454 18.0633 24.9091 18.0661Z" fill="#F3ECDB"/>
<path d="M3 0C1.34315 0 0 1.34315 0 3V35C0 36.6569 1.34315 38 3 38H35C36.6569 38 38 36.6569 38 35V3C38 1.34315 36.6569 0 35 0H3ZM31.018 22.5784L31.0105 22.6084C30.4034 25.0624 27.6668 27.6956 25.1537 28.2434L25.1253 28.2492C23.0933 28.637 21.0462 28.8304 19 28.8304C18.3978 28.8304 17.7955 28.8117 17.1936 28.778L14.4182 31.6629C13.7311 32.3783 12.5229 31.8914 12.5229 30.9V28.1607C10.1035 27.4698 7.57072 24.9576 6.98879 22.6083L6.98212 22.5783C6.23168 19.1513 6.23168 15.6759 6.98212 12.2489L6.98879 12.2189C7.59665 9.76493 10.3333 7.13171 12.8456 6.58388L12.8748 6.57805C16.9388 5.80259 21.0604 5.80259 25.1253 6.57805L25.1537 6.58388C27.6668 7.13171 30.4034 9.76493 31.0105 12.2189L31.018 12.2489C31.7684 15.676 31.7684 19.1514 31.018 22.5784Z" fill="#F3ECDB"/>
</svg>
