<svg width="125" height="30" viewBox="0 0 125 30" fill="none" xmlns="http://www.w3.org/2000/svg">
<path d="M11.23 5.4V27H8.8V7.803H2.536V27H0.106V5.4H11.23ZM15.0467 23.382V9.126C15.0467 8.046 15.4247 7.128 16.1807 6.372C16.9367 5.616 17.8547 5.238 18.9347 5.238H22.4177C23.4977 5.238 24.4157 5.616 25.1717 6.372C25.9277 7.128 26.3057 8.046 26.3057 9.126V23.382C26.3057 24.462 25.9277 25.38 25.1717 26.136C24.4157 26.892 23.4977 27.27 22.4177 27.27H18.9347C17.8547 27.27 16.9367 26.892 16.1807 26.136C15.4247 25.38 15.0467 24.462 15.0467 23.382ZM17.4767 9.126V23.382C17.4767 23.814 17.6117 24.165 17.8817 24.435C18.1517 24.705 18.5027 24.84 18.9347 24.84H22.4177C22.8497 24.84 23.2007 24.705 23.4707 24.435C23.7407 24.165 23.8757 23.814 23.8757 23.382V9.126C23.8757 8.694 23.7407 8.343 23.4707 8.073C23.2007 7.803 22.8497 7.668 22.4177 7.668H18.9347C18.5027 7.668 18.1517 7.803 17.8817 8.073C17.6117 8.343 17.4767 8.694 17.4767 9.126ZM38.5095 27L34.7295 17.415L30.9495 27H28.4655L33.2715 15.255L29.1675 5.4H31.7055L34.7295 13.257L37.7535 5.4H40.2915L36.1605 15.228L40.9935 27H38.5095ZM43.6287 23.382V9.126C43.6287 8.046 44.0067 7.128 44.7627 6.372C45.5187 5.616 46.4367 5.238 47.5167 5.238H50.9997C52.0797 5.238 52.9977 5.616 53.7537 6.372C54.5097 7.128 54.8877 8.046 54.8877 9.126V23.382C54.8877 24.462 54.5097 25.38 53.7537 26.136C52.9977 26.892 52.0797 27.27 50.9997 27.27H47.5167C46.4367 27.27 45.5187 26.892 44.7627 26.136C44.0067 25.38 43.6287 24.462 43.6287 23.382ZM46.0587 9.126V23.382C46.0587 23.814 46.1937 24.165 46.4637 24.435C46.7337 24.705 47.0847 24.84 47.5167 24.84H50.9997C51.4317 24.84 51.7827 24.705 52.0527 24.435C52.3227 24.165 52.4577 23.814 52.4577 23.382V9.126C52.4577 8.694 52.3227 8.343 52.0527 8.073C51.7827 7.803 51.4317 7.668 50.9997 7.668H47.5167C47.0847 7.668 46.7337 7.803 46.4637 8.073C46.1937 8.343 46.0587 8.694 46.0587 9.126ZM71.9515 24.597H75.1645V29.457H72.7345V27H57.0475V24.651H57.3445C58.3525 24.651 59.0815 24.399 59.5315 23.895C59.9815 23.391 60.2245 22.527 60.2605 21.303L60.9625 5.373H71.9515V24.597ZM69.5215 24.597V7.803H63.3655L62.7445 21.303C62.6905 22.725 62.3755 23.823 61.7995 24.597H69.5215ZM79.8973 13.878H86.2153V5.4H88.6453V27H86.2153V16.281H79.8973V27H77.4673V5.4H79.8973V13.878ZM95.2694 5.4V13.554C97.9694 12.276 99.7964 11.619 100.75 11.583C101.452 11.583 102.028 11.835 102.478 12.339C102.928 12.825 103.162 13.446 103.18 14.202V23.679C103.144 24.705 102.784 25.56 102.1 26.244C101.38 26.928 100.534 27.27 99.5624 27.27H96.4034C95.3954 27.306 94.5404 26.964 93.8384 26.244C93.1544 25.524 92.8124 24.669 92.8124 23.679V7.884H92.8394V5.4H95.2694ZM108.688 5.4V27H106.258V5.4H108.688ZM100.75 23.706V14.796C100.75 14.31 100.624 14.067 100.372 14.067C100.012 14.067 98.3114 14.706 95.2694 15.984V17.55H95.2424V23.679C95.2424 24.453 95.6294 24.84 96.4034 24.84H99.5894C99.9314 24.84 100.21 24.732 100.426 24.516C100.642 24.3 100.75 24.03 100.75 23.706ZM119.547 0.269998H121.437C121.437 0.989999 121.185 1.602 120.681 2.106C120.177 2.61 119.565 2.862 118.845 2.862C118.125 2.862 117.513 2.61 117.009 2.106C116.505 1.602 116.253 0.989999 116.253 0.269998H118.143C118.143 0.737999 118.377 0.971999 118.845 0.971999C119.313 0.971999 119.547 0.737999 119.547 0.269998ZM122.355 27V11.421L115.308 26.109V27H112.878V5.4H115.308V20.952L122.355 6.264V5.4H124.785V27H122.355Z" fill="#F3ECDB"/>
</svg>
